<svg width="802" height="185" viewBox="0 0 802 185" fill="none" xmlns="http://www.w3.org/2000/svg">
<path fill-rule="evenodd" clip-rule="evenodd" d="M628.629 34.8097L627.767 36.3994C617.426 31.9283 606.754 28.484 595.983 25.702C590.58 24.2779 585.145 23.1188 579.643 22.1252C577.559 21.7188 575.435 21.3904 573.333 21.0651L573.329 21.0645L573.327 21.0641C572.69 20.9656 572.055 20.8674 571.423 20.7673C570.758 20.6792 570.093 20.5892 569.427 20.4991C567.34 20.2166 565.248 19.9335 563.138 19.7075C557.603 19.0783 552.068 18.6477 546.533 18.3166C540.998 17.9522 535.463 17.6873 529.928 17.5217C518.858 17.1574 507.755 17.1905 496.685 17.9191C485.615 18.6809 474.612 20.0387 463.675 22.0258C461.452 22.4005 459.251 22.8617 457.054 23.3219L457.052 23.3224C456.53 23.4316 456.009 23.5407 455.488 23.6487L451.279 24.4766C449.854 24.7747 448.462 25.0396 447.037 25.2715L442.794 26.0001L438.519 26.5962C437.094 26.7949 435.669 26.9605 434.243 27.1261C432.818 27.2917 431.393 27.4573 429.935 27.5567C424.201 28.1197 418.434 28.4178 412.634 28.3184H411.905L411.739 111.314C411.739 125.323 417.241 131.02 424.963 131.02C431.062 131.02 436.133 127.575 442.463 118.236C443.059 117.408 445.479 119.229 445.114 120.057C436.563 133.47 428.775 141.617 418.268 140.591C405.077 139.299 397.289 132.642 397.289 112.341V37.1942L397.255 27.358C396.708 27.3004 396.161 27.2179 395.592 27.132L395.333 27.093C389.599 26.2319 383.932 25.0065 378.463 23.1188C375.712 22.1583 373.028 21.0985 370.443 19.7738C369.15 19.1114 367.891 18.4159 366.664 17.6542C365.438 16.8924 364.245 16.0976 363.085 15.0709L364.245 13.6799C365.305 14.3754 366.565 15.0378 367.791 15.6339C369.051 16.197 370.31 16.7269 371.603 17.1905C374.188 18.151 376.839 18.9127 379.524 19.5419C382.208 20.1712 384.926 20.6349 387.677 21.0323C390.395 21.3966 393.179 21.6615 395.93 21.794C396.162 21.794 396.394 21.8106 396.626 21.8271C396.858 21.8437 397.09 21.8603 397.322 21.8603C404.182 14.1436 406.038 11.0967 410.115 0.498688H412.004V21.6947C417.672 21.3635 423.339 20.668 428.974 19.8069C434.442 18.9458 439.878 17.886 445.28 16.5944C446.639 16.2963 447.998 15.9651 449.324 15.6339L453.367 14.6404C454.258 14.4284 455.149 14.2095 456.042 13.9905L456.043 13.9902C457.937 13.525 459.837 13.0585 461.752 12.6533C467.354 11.3947 473.021 10.3349 478.688 9.44074C484.389 8.57965 490.09 7.88416 495.824 7.32114C501.557 6.82436 507.291 6.39382 513.058 6.22822C518.825 6.02951 524.592 5.99639 530.326 6.22822C533.209 6.32758 536.093 6.52629 538.943 6.75812C539.774 6.84499 540.607 6.92624 541.442 7.0076L541.443 7.00765C543.472 7.20543 545.508 7.40388 547.527 7.68545C550.377 8.04975 553.228 8.4803 556.078 8.94396C556.841 9.08743 557.606 9.22848 558.372 9.36973L558.375 9.37025C560.438 9.7505 562.509 10.1322 564.563 10.5668C566.803 11.0146 569.044 11.5252 571.268 12.0321L571.288 12.0365L571.295 12.0383L571.297 12.0387C571.86 12.1669 572.421 12.2948 572.981 12.4214L573.538 12.5605L573.539 12.5606C576.141 13.2101 578.766 13.8654 581.333 14.6073C586.868 16.1638 592.337 17.8529 597.739 19.8069C608.511 23.7149 618.984 28.5834 628.562 34.7766L628.629 34.8097ZM254.673 0.531814C247.804 6.05552 244.583 6.5795 240.199 7.29263L240.023 7.32115L242.94 14.6073L191.535 140.624H198.594L215.166 100.915H215.63H277.873L294.146 140.657H308.829L254.673 0.531814ZM218.281 94.059L246.785 23.8474L275.288 94.059H218.281ZM369.481 40.0093C361.169 40.0093 358.009 43.3259 351.336 50.331C349.788 51.9562 348.051 53.78 346.016 55.8069L340.812 61.0065C340.812 61.0065 340.746 40.4398 340.613 40.208C337.167 42.2614 331.433 43.7517 326.13 44.8115V140.624H340.812V65.2789L354.567 51.7002C356.423 49.8455 358.279 49.0838 360.135 49.0838C363.98 49.0838 367.632 52.7008 371.124 56.1586L371.304 56.3368C371.387 56.4193 371.477 56.5018 371.568 56.5843L371.569 56.5852C371.66 56.668 371.752 56.7508 371.834 56.8336L379.921 42.8244C376.806 41.036 372.63 39.9762 369.448 39.9762L369.481 40.0093ZM673.157 50.331C679.83 43.3259 682.99 40.0093 691.302 40.0093L691.203 39.9762C694.418 39.9762 698.594 41.036 701.709 42.8244L693.622 56.8336C693.579 56.79 693.533 56.7464 693.486 56.7028C693.459 56.6777 693.431 56.6526 693.404 56.6275L693.357 56.5854L693.355 56.5836C693.265 56.5014 693.174 56.4191 693.092 56.3368L692.912 56.1586C689.42 52.7008 685.768 49.0838 681.923 49.0838C680.067 49.0838 678.211 49.8455 676.355 51.7002L662.6 65.2789V140.624H647.951V44.8115C653.254 43.7517 658.988 42.2614 662.435 40.208C662.567 40.4398 662.633 61.0065 662.633 61.0065L667.837 55.8069C669.867 53.7845 671.601 51.9644 673.147 50.3419L673.15 50.339L673.155 50.3332L673.157 50.331ZM603.173 140.624C613.713 141.551 621.469 134.1 630.019 121.812C630.417 121.084 627.998 119.395 627.368 120.157C621.071 128.701 616 131.881 609.901 131.881C602.179 131.881 596.677 126.681 596.677 113.831V45.9044H618.32L620.043 40.3074H596.876V30.7692L596.699 30.7142C593.82 29.8204 589.606 28.5124 582.625 28.2853V40.3074H562.275L561.28 45.9044H582.194V114.758C582.194 133.371 589.982 139.432 603.173 140.624ZM597.076 0.995458V14.7728C594.267 13.4817 592.124 12.928 589.559 12.265C589.098 12.1457 588.622 12.0228 588.127 11.8915C589.386 9.97063 593.33 2.94946 593.993 0.995458C593.993 0.995458 593.993 0.962339 594.06 0.929221H597.042V0.995458H597.076ZM462.812 138.935H477.461C477.461 128.602 477.428 67.829 477.395 67.7296C473.915 69.783 468.115 71.3064 462.812 72.3331V138.935ZM792.521 40.208L765.178 107.108L737.238 40.208H718.28L755.864 128.966L745.623 153.673C745.461 154.047 745.296 154.429 745.128 154.817L745.106 154.866C740.447 165.641 733.649 181.36 721.064 181.36C715.131 181.36 712.679 175.829 712.182 170.066H696.439C696.803 171.491 697.4 172.815 698.162 174.14C700.78 178.578 706.348 184.142 718.81 184.142C732.399 184.142 745.259 174.14 755.102 150.791L802 40.208H792.521ZM562.208 127.476C564.594 122.64 566.815 114.924 563.898 107.936L563.964 107.969C559.117 96.4323 544.234 89.7411 542.556 88.9869C542.491 88.9573 542.445 88.9369 542.421 88.9256C538.676 87.1703 531.782 84.6202 521.707 81.2421C521.475 81.1758 521.243 81.1096 521.044 81.0102C515.277 78.6919 511.466 76.1749 509.643 73.4923C507.753 70.7766 506.825 67.564 506.825 63.921C506.825 58.3902 508.814 53.6873 512.824 49.7793C516.835 45.8713 522.237 43.9173 529.065 43.9173C533.141 43.9173 536.754 44.6128 540.002 46.0369C543.25 47.461 546.1 49.4812 548.619 52.0976C551.105 54.714 552.364 56.0718 552.364 56.0718L553.193 55.9394L548.453 43.4867C548.255 43.4867 548.089 43.4536 547.89 43.3543C547.459 43.1224 545.305 42.6256 541.394 41.8639C537.516 41.1022 533.904 40.7048 530.556 40.7048C521.939 40.7048 514.979 43.3211 509.676 48.5539C504.34 53.7867 501.688 60.2448 501.688 67.9615C501.688 72.1675 502.716 76.3074 504.804 80.3147C506.859 84.3552 509.444 87.369 512.559 89.3893C515.642 91.4095 521.011 93.7609 528.634 96.4435C536.29 99.0599 541.526 101.312 544.277 103.134C547.028 104.955 549.183 107.075 550.707 109.492C552.265 111.91 553.027 114.858 553.027 118.269C553.027 123.899 550.807 128.734 546.398 132.742C541.99 136.749 535.528 138.769 527.043 138.769C524.723 138.769 518.293 137.776 514.912 136.12C510.206 133.801 506.395 130.887 503.478 127.376C502.55 126.25 501.721 125.124 500.959 123.899C500.031 122.508 499.236 121.051 498.573 119.494C497.976 118.203 497.446 116.845 497.015 115.421C495.623 110.983 494.96 108.631 494.96 108.631L493.933 108.3L492.242 125.422C492.317 125.465 492.639 125.744 493.157 126.194L493.158 126.195L493.159 126.196L493.159 126.196C494.251 127.144 496.214 128.848 498.573 130.688C498.871 130.92 507.488 137.014 511.366 138.935C513.918 140.226 516.437 141.22 518.923 141.949C526.181 144.168 534.135 144.631 540.93 142.412C550.077 139.398 557.767 136.385 562.208 127.476ZM482.068 49.4481C478.986 49.4481 476.103 51.9652 473.915 54.8796C471.761 57.794 469.839 61.6689 469.839 65.8088C469.839 61.702 467.949 57.8272 465.762 54.8796C463.574 51.9983 460.691 49.4481 457.609 49.4481C459.133 49.4481 460.658 48.7858 462.017 47.7922C463.376 46.7986 464.668 45.4076 465.762 43.9504C467.949 41.036 469.839 37.1611 469.839 33.0544C469.839 37.1611 471.728 41.036 473.915 43.9504C475.009 45.4076 476.268 46.7986 477.66 47.7922C479.052 48.7858 480.544 49.4481 482.068 49.4481ZM13.2242 98.8281V124.926C13.2242 126.813 13.2573 128.503 13.3236 130.026C13.3899 131.549 13.5887 132.808 13.8539 133.835C14.1522 134.861 14.583 135.623 15.1465 136.153C15.7099 136.683 16.5053 136.981 17.5328 136.981C19.0574 136.981 20.4825 136.252 21.8083 134.828C23.134 133.371 23.9957 131.649 24.3603 129.629H25.3215V137.544C24.6586 137.544 24.1283 137.776 23.6974 138.206C23.134 138.703 22.3054 139.266 21.2448 139.829C20.1842 140.392 18.6265 140.69 16.5385 140.69C13.9202 140.69 11.8984 140.193 10.4733 139.167C9.01497 138.14 7.98753 136.815 7.32466 135.159C6.6618 133.503 6.29722 131.649 6.19779 129.629C6.09836 127.608 6.03207 125.555 6.03207 123.468V98.8613H0V95.1851H6.06522V85.5475C6.06522 84.3222 5.8995 83.1961 5.56807 82.1363C5.23664 81.0765 4.17605 80.5135 2.35317 80.4473V79.3543L13.191 75.8769V95.152H25.3215V98.8281H13.2242ZM77.092 133.57C77.092 134.166 77.1583 134.795 77.324 135.457C77.4566 136.153 77.6886 136.782 78.02 137.345C78.3514 137.941 78.716 138.438 79.1137 138.869C79.5114 139.299 80.0086 139.531 80.572 139.531V140.624H66.5856V139.531C67.0827 139.531 67.5467 139.299 68.0107 138.869C68.4416 138.438 68.8393 137.941 69.1376 137.345C69.469 136.782 69.701 136.12 69.8336 135.457C69.9662 134.762 70.0656 134.133 70.0656 133.57V113.4C70.0656 110.784 69.701 108.532 68.9719 106.578C68.2427 104.624 67.2816 103.001 66.0553 101.709C64.829 100.418 63.437 99.4574 61.8792 98.8281C60.3215 98.232 58.7638 97.9008 57.1729 97.9008C55.582 97.9008 54.0243 98.1989 52.4665 98.8281C50.9088 99.4574 49.5499 100.285 48.3568 101.378C47.1636 102.471 46.2025 103.796 45.4402 105.319C44.6779 106.876 44.3133 108.598 44.3133 110.453V133.537C44.3133 134.133 44.3796 134.762 44.5453 135.424C44.6779 136.12 44.9099 136.749 45.2413 137.312C45.5727 137.908 45.9373 138.405 46.335 138.836C46.7327 139.266 47.2299 139.498 47.7933 139.498V140.591H33.7074V139.498C34.2046 139.498 34.6686 139.266 35.1326 138.836C35.5635 138.405 35.9612 137.908 36.2595 137.312C36.5909 136.749 36.8229 136.087 36.9555 135.424C37.0881 134.729 37.1875 134.1 37.1875 133.537V78.1621C37.1875 76.9367 37.0218 75.7775 36.6572 74.6846C36.2926 73.5917 35.232 73.0287 33.5086 72.9624V71.8695L44.3464 68.5245V99.8548C44.8436 99.2918 45.5064 98.6294 46.3019 97.967C47.0973 97.2715 48.0585 96.6423 49.1853 96.013C50.3122 95.3838 51.6048 94.887 53.0963 94.4896C54.5877 94.0922 56.3443 93.8934 58.366 93.8934C61.7467 93.8934 64.6633 94.4565 67.0496 95.6156C69.4359 96.7748 71.3913 98.2651 72.9159 100.12C74.4405 101.974 75.5342 103.995 76.2303 106.18C76.9263 108.399 77.2577 110.519 77.2577 112.639V133.537L77.092 133.57ZM99.0323 125.952C98.0712 123.667 97.4746 121.249 97.1763 118.732V118.699H134.794C134.794 115.189 134.363 111.91 133.501 108.962C132.64 106.015 131.314 103.432 129.557 101.279C127.768 99.093 125.547 97.404 122.829 96.1786C120.111 94.9532 116.963 94.324 113.35 94.324C109.307 94.324 105.827 95.0194 102.943 96.3773C100.06 97.7352 97.7066 99.5236 95.8506 101.743C94.0277 103.928 92.6357 106.412 91.7408 109.161C90.846 111.91 90.382 114.593 90.382 117.275C90.382 121.448 91.078 125.058 92.4037 128.105C93.7294 131.152 95.5192 133.636 97.7729 135.59C100.027 137.544 102.612 139.001 105.528 139.928C108.478 140.889 111.561 141.353 114.809 141.353C118.852 141.353 122.1 140.856 124.553 139.895C127.005 138.935 128.961 138.008 130.419 137.146C131.148 136.716 131.778 136.352 132.308 136.054C132.838 135.755 133.336 135.623 133.766 135.623V127.509H132.805C132.374 129.099 131.546 130.523 130.353 131.781C129.16 133.073 127.801 134.133 126.276 134.994C124.752 135.888 123.094 136.55 121.338 137.014C119.581 137.478 117.891 137.709 116.3 137.709C113.317 137.709 110.732 137.213 108.478 136.153C106.224 135.093 104.335 133.702 102.778 131.98C101.22 130.225 99.9604 128.238 99.0323 125.952ZM106.324 99.4574C108.18 98.4307 110.367 97.9339 112.886 97.9339L112.853 97.967C115.306 97.967 117.46 98.4638 119.349 99.4242C121.238 100.385 122.796 101.676 124.022 103.266C125.249 104.856 126.21 106.677 126.906 108.697C127.569 110.718 127.966 112.771 128.033 114.858H97.1432C97.3752 112.837 97.8392 110.817 98.5683 108.797C99.2975 106.777 100.325 104.955 101.618 103.365C102.91 101.776 104.468 100.484 106.324 99.4574Z" fill="url(#paint0_linear_118_354)"/>
<defs>
<linearGradient id="paint0_linear_118_354" x1="-73.0794" y1="53.2157" x2="50.7104" y2="447.389" gradientUnits="userSpaceOnUse">
<stop stop-color="#E3B373"/>
<stop offset="0.33" stop-color="#FEE0B7"/>
<stop offset="0.552083" stop-color="#FEE5C5"/>
<stop offset="0.78125" stop-color="#DEA760"/>
<stop offset="1" stop-color="#C3843E"/>
</linearGradient>
</defs>
</svg>
