<svg width="51" height="51" xmlns="http://www.w3.org/2000/svg"><path d="M36.489 51H14.51C6.53 51 0 44.504 0 36.489V14.51C0 6.53 6.529 0 14.511 0H36.49C44.504 0 51 6.529 51 14.511V36.49C51 44.504 44.504 51 36.489 51zM14.51 4.363c-5.59 0-10.148 4.557-10.148 10.148V36.49c0 5.59 4.557 10.148 10.148 10.148h21.98c5.59 0 10.148-4.557 10.148-10.148V14.51c0-5.59-4.557-10.148-10.148-10.148H14.51z"/><path d="M25.5 38.557c-7.207 0-13.057-5.85-13.057-13.057 0-7.207 5.85-13.057 13.057-13.057 7.207 0 13.057 5.85 13.057 13.057 0 7.207-5.85 13.057-13.057 13.057zm0-21.75c-4.783 0-8.694 3.91-8.694 8.693 0 4.783 3.91 8.694 8.694 8.694 4.783 0 8.694-3.91 8.694-8.694 0-4.783-3.91-8.694-8.694-8.694zM42.274 11.7a3.117 3.117 0 01-3.135 3.135 3.117 3.117 0 01-3.135-3.135 3.117 3.117 0 013.135-3.135 3.138 3.138 0 013.135 3.135z"/></svg>