<svg width="331" height="95" fill="none" xmlns="http://www.w3.org/2000/svg"><path fill-rule="evenodd" clip-rule="evenodd" d="M259.446 14.16l-.355.657c-4.268-1.845-8.673-3.267-13.118-4.415a87.14 87.14 0 00-6.744-1.476 67.006 67.006 0 00-2.604-.438 86.94 86.94 0 01-.788-.123l-.824-.11a91.518 91.518 0 00-2.596-.327 127.6 127.6 0 00-6.853-.574c-2.285-.15-4.569-.26-6.853-.328-4.569-.15-9.151-.137-13.72.164-4.569.314-9.11.875-13.624 1.695-.918.154-1.826.345-2.733.535l-.646.134-1.737.342c-.588.123-1.163.232-1.751.328l-1.751.3-1.764.247c-.589.082-1.177.15-1.765.219-.588.068-1.176.136-1.778.177a62.135 62.135 0 01-7.141.315H170l-.068 34.253c0 5.782 2.271 8.133 5.458 8.133 2.517 0 4.61-1.421 7.222-5.276.247-.342 1.245.41 1.095.752-3.529 5.536-6.744 8.898-11.08 8.474-5.444-.533-8.659-3.28-8.659-11.659V15.145l-.014-4.06a15.742 15.742 0 01-.686-.093l-.107-.016c-2.366-.355-4.705-.861-6.962-1.64-1.136-.397-2.244-.834-3.311-1.38a21.76 21.76 0 01-1.559-.876c-.506-.314-.999-.642-1.477-1.066l.478-.574c.438.287.958.56 1.464.807.52.232 1.04.45 1.573.642 1.067.396 2.161.71 3.269.97s2.23.452 3.365.616a40.31 40.31 0 003.694.328c.095.006.191.013.287.013 2.831-3.185 3.597-4.442 5.28-8.816h.779v8.748c2.34-.137 4.679-.424 7.004-.78 2.257-.355 4.5-.792 6.73-1.325.561-.123 1.122-.26 1.669-.396l1.669-.41c.367-.088.735-.178 1.103-.269h.001a77.482 77.482 0 012.356-.552 110.49 110.49 0 016.99-1.325c2.353-.356 4.706-.643 7.072-.875 2.367-.205 4.733-.383 7.113-.451a95.32 95.32 0 017.127 0c1.19.04 2.38.123 3.556.218.343.036.687.07 1.032.103.837.082 1.678.164 2.511.28 1.177.15 2.353.328 3.529.52l.948.175c.852.157 1.707.315 2.554.494.925.185 1.85.396 2.768.605h.002c.236.054.47.108.705.16l.229.058c1.074.268 2.158.539 3.218.845a97.428 97.428 0 016.771 2.146c4.445 1.613 8.768 3.622 12.721 6.178l.027.014zM105.108.015c-2.835 2.28-4.164 2.496-5.974 2.79l-.072.012 1.204 3.007-21.216 52.01h2.913l6.84-16.39h25.88l6.716 16.403h6.06L105.108.014zm-15.02 38.6l11.764-28.978 11.764 28.978H90.089zm62.404-22.307c-3.431 0-4.735 1.369-7.489 4.26a115.25 115.25 0 01-2.196 2.26l-2.148 2.146s-.027-8.489-.082-8.584c-1.422.847-3.789 1.462-5.977 1.9v39.543h6.059V26.736l5.677-5.604c.766-.766 1.532-1.08 2.298-1.08 1.587 0 3.094 1.493 4.536 2.92l.074.073c.034.035.072.069.109.103l.077.07.033.032 3.337-5.781c-1.285-.739-3.009-1.176-4.322-1.176l.014.014zm125.332 4.26c2.754-2.892 4.058-4.26 7.489-4.26l-.041-.014c1.327 0 3.05.438 4.336 1.176l-3.338 5.781-.04-.039-.069-.063a3.684 3.684 0 01-.11-.103l-.074-.073c-1.441-1.427-2.949-2.92-4.535-2.92-.766 0-1.532.314-2.298 1.08l-5.677 5.604v31.096h-6.046V18.29c2.188-.438 4.555-1.053 5.978-1.9.054.095.082 8.584.082 8.584l2.147-2.146c.84-.837 1.557-1.59 2.196-2.26zM248.94 57.832c4.35.383 7.551-2.693 11.08-7.764.164-.3-.834-.997-1.094-.683-2.599 3.526-4.692 4.839-7.209 4.839-3.187 0-5.458-2.146-5.458-7.45V18.74h8.933l.711-2.31h-9.562v-3.937l-.073-.023c-1.188-.368-2.927-.908-5.808-1.002v4.962h-8.399l-.411 2.31h8.632v28.417c0 7.682 3.214 10.183 8.658 10.675zM246.424.205v5.686c-1.16-.533-2.044-.761-3.102-1.035l-.592-.154c.52-.793 2.148-3.69 2.422-4.497 0 0 0-.014.027-.027h1.231v.027h.014zm-55.413 56.93h6.046c0-4.265-.014-29.347-.028-29.388-1.436.848-3.83 1.477-6.018 1.9v27.488zM327.087 16.39L315.802 44l-11.531-27.61h-7.824l15.512 36.632-4.227 10.197-.212.488-.001.004c-1.923 4.447-4.729 10.935-9.923 10.935-2.449 0-3.461-2.283-3.666-4.661h-6.497c.15.587.396 1.134.711 1.68 1.081 1.832 3.379 4.129 8.522 4.129 5.608 0 10.916-4.128 14.978-13.765L331 16.389h-3.913zm-95.054 36.017c.985-1.996 1.902-5.18.698-8.065l.027.014c-2.001-4.761-8.143-7.523-8.835-7.834l-.056-.026c-1.546-.724-4.391-1.777-8.549-3.17a1.594 1.594 0 01-.274-.097c-2.38-.956-3.953-1.995-4.705-3.102-.78-1.121-1.163-2.447-1.163-3.95 0-2.283.821-4.224 2.476-5.837 1.655-1.613 3.885-2.42 6.702-2.42 1.683 0 3.174.288 4.514.875a11.058 11.058 0 013.557 2.502c1.026 1.08 1.546 1.64 1.546 1.64l.342-.055-1.957-5.14a.482.482 0 01-.232-.054c-.178-.095-1.067-.3-2.681-.615-1.601-.314-3.091-.478-4.473-.478-3.557 0-6.429 1.08-8.618 3.24-2.202 2.159-3.296 4.824-3.296 8.01 0 1.735.424 3.444 1.285 5.097.849 1.668 1.916 2.912 3.201 3.746 1.272.834 3.488 1.804 6.635 2.911 3.159 1.08 5.321 2.01 6.456 2.761 1.135.752 2.024 1.627 2.654 2.625.643.997.957 2.214.957 3.622 0 2.323-.916 4.32-2.736 5.973-1.819 1.654-4.486 2.488-7.988 2.488-.958 0-3.611-.41-5.006-1.094-1.943-.957-3.516-2.16-4.72-3.608-.383-.465-.725-.93-1.039-1.436a11.049 11.049 0 01-.985-1.817 13.019 13.019 0 01-.643-1.682c-.575-1.831-.848-2.802-.848-2.802l-.424-.136-.698 7.066c.031.018.163.133.377.318h.001v.001a53.817 53.817 0 002.235 1.855c.123.095 3.679 2.61 5.28 3.403 1.053.533 2.093.943 3.119 1.244 2.995.916 6.278 1.107 9.082.191 3.776-1.244 6.949-2.487 8.782-6.164zm-33.075-32.204c-1.272 0-2.462 1.04-3.365 2.242-.889 1.203-1.682 2.802-1.682 4.51 0-1.694-.78-3.294-1.683-4.51-.903-1.19-2.093-2.242-3.365-2.242.63 0 1.259-.273 1.82-.683.56-.41 1.094-.984 1.545-1.586.903-1.203 1.683-2.802 1.683-4.497 0 1.695.779 3.294 1.682 4.497.452.602.971 1.176 1.546 1.586.574.41 1.19.683 1.819.683zm-193.5 20.38v10.771c0 .78.014 1.476.04 2.105a7.62 7.62 0 00.22 1.572c.123.424.3.738.533.957.233.219.561.342.985.342.63 0 1.218-.301 1.765-.889a4.24 4.24 0 001.053-2.146h.397v3.267a.907.907 0 00-.67.273 5.379 5.379 0 01-1.013.67c-.438.233-1.08.355-1.942.355-1.08 0-1.915-.205-2.503-.628a3.601 3.601 0 01-1.3-1.654c-.274-.684-.424-1.45-.465-2.283a51.634 51.634 0 01-.068-2.542V40.596H0v-1.517h2.503V35.1c0-.506-.068-.97-.205-1.408-.137-.437-.574-.67-1.327-.697v-.45l4.473-1.436v7.955h5.007v1.517H5.458zm26.359 14.339c0 .246.027.505.096.779.055.287.15.547.287.779.137.246.287.451.451.629.165.177.37.273.602.273v.451h-5.772v-.45c.205 0 .396-.097.588-.274.178-.178.342-.383.465-.629a2.54 2.54 0 00.287-.78c.055-.286.096-.546.096-.778v-8.325c0-1.08-.15-2.009-.451-2.815-.301-.807-.698-1.477-1.204-2.01a4.884 4.884 0 00-1.724-1.189 5.397 5.397 0 00-1.942-.382c-.657 0-1.3.123-1.942.382a5.534 5.534 0 00-1.697 1.053c-.492.45-.889.998-1.203 1.626-.315.643-.465 1.353-.465 2.119v9.527c0 .246.027.506.095.78.055.286.15.546.288.778.136.246.287.451.451.629.164.178.37.273.602.273v.452H13.91v-.452c.206 0 .397-.095.589-.273a2.42 2.42 0 00.465-.629c.136-.232.232-.506.287-.779.055-.287.096-.547.096-.779V32.053c0-.506-.069-.984-.22-1.435-.15-.451-.587-.684-1.299-.711v-.451l4.473-1.38v12.93c.206-.232.48-.506.807-.78a7.041 7.041 0 011.19-.806c.466-.26.999-.464 1.615-.628.615-.164 1.34-.246 2.174-.246 1.396 0 2.6.232 3.584.71.985.479 1.792 1.094 2.421 1.86a7.46 7.46 0 011.368 2.5c.288.916.424 1.791.424 2.666v8.625l-.068.014zm9.055-3.144a10.98 10.98 0 01-.766-2.98v-.014h15.526c0-1.448-.178-2.802-.534-4.018-.355-1.217-.903-2.283-1.628-3.171-.738-.902-1.655-1.6-2.776-2.105-1.122-.506-2.422-.766-3.913-.766-1.668 0-3.105.287-4.295.848-1.19.56-2.16 1.298-2.927 2.214a9.205 9.205 0 00-1.696 3.062c-.37 1.134-.561 2.242-.561 3.349 0 1.722.287 3.212.834 4.47.548 1.257 1.286 2.282 2.216 3.089a9.004 9.004 0 003.201 1.79c1.218.397 2.49.588 3.83.588 1.67 0 3.01-.205 4.022-.602 1.012-.396 1.82-.779 2.421-1.134.301-.178.56-.328.78-.451.219-.123.424-.178.602-.178V52.42h-.397a4.105 4.105 0 01-1.012 1.764 6.865 6.865 0 01-1.683 1.325 8.038 8.038 0 01-2.038.834 8.172 8.172 0 01-2.08.287c-1.23 0-2.297-.205-3.227-.642a7.333 7.333 0 01-2.353-1.722 8.568 8.568 0 01-1.546-2.488zm3.01-10.935c.766-.424 1.668-.629 2.708-.629l-.014.014c1.013 0 1.902.205 2.681.601a5.62 5.62 0 011.929 1.586 7.81 7.81 0 011.19 2.242c.274.833.438 1.68.465 2.542H40.093a11.06 11.06 0 01.588-2.501c.3-.834.725-1.586 1.258-2.242a6.551 6.551 0 011.943-1.613z" fill="#FFF"/><path d="M72.88 90.418h-1.819L69.94 85.02l-3.133 6.028-3.078-6.014-1.108 5.385h-1.819l2.421-10.005 3.584 7.38 3.639-7.38 2.435 10.005zm9.111-8.201c-.3-.424-.725-.738-1.245-.957-.533-.218-1.162-.328-1.874-.328-.834 0-1.545.123-2.147.383-.588.26-1.067.52-1.423.765l.794 1.23c.15-.109.355-.232.615-.396.26-.15.575-.287.944-.41a4.15 4.15 0 011.217-.178c.507 0 .972.124 1.368.356.397.232.588.588.588 1.066v1.545a4.355 4.355 0 00-.875-.424c-.424-.15-.93-.233-1.532-.233-.807 0-1.505.124-2.107.37-.588.246-1.053.6-1.367 1.066-.329.45-.493 1.011-.493 1.667 0 .656.15 1.162.438 1.586.287.424.67.752 1.163.957a3.898 3.898 0 001.6.328 4.49 4.49 0 001.75-.328 2.98 2.98 0 001.26-.97c.054-.07.109-.151.15-.233v1.326h1.614v-6.67c0-.602-.15-1.121-.451-1.532l.013.014zm-1.518 5.96c-.233.355-.561.601-.985.765a3.957 3.957 0 01-1.436.246 2.48 2.48 0 01-.985-.178 1.61 1.61 0 01-.711-.505c-.178-.219-.26-.492-.26-.82 0-.383.082-.698.26-.97.177-.274.437-.48.793-.63.355-.15.807-.218 1.34-.218.588 0 1.122.082 1.6.232.247.082.48.178.726.314v.37c0 .573-.11 1.038-.356 1.394h.014zm12.023-6.971V90.5h-1.628v-4.14h-5.157v4.14h-1.614v-9.294h1.614v3.635h5.157v-3.635h1.628zm9.411-.793v10.005h-1.614V84.39l-6.169 6.74V81.123h1.614v6.028l6.169-6.74zm9.138 10.005h-2.025l-3.843-4.715v4.715h-1.615v-9.294h1.615v3.267l3.433-3.267h2.024l-4.048 3.84 4.459 5.454zm13.911-7.148a4.595 4.595 0 00-1.724-1.709c-.725-.424-1.545-.629-2.462-.629-.916 0-1.71.205-2.448.629a4.625 4.625 0 00-2.271 3.199h-1.71v-3.636h-1.614v9.294h1.614v-4.141h1.642c.068.724.259 1.394.615 1.995a4.534 4.534 0 001.724 1.723c.725.423 1.545.628 2.448.628s1.737-.205 2.462-.628a4.63 4.63 0 001.724-1.723c.424-.724.629-1.558.629-2.501 0-.943-.205-1.777-.629-2.515v.014zm-1.423 4.223a3.117 3.117 0 01-1.135 1.176 3.12 3.12 0 01-1.628.437c-.602 0-1.149-.137-1.628-.437a3.131 3.131 0 01-1.135-1.176c-.274-.505-.41-1.066-.41-1.722 0-.656.136-1.217.41-1.722a2.946 2.946 0 011.135-1.176c.479-.287 1.013-.424 1.628-.424.616 0 1.149.137 1.628.424.479.287.862.67 1.135 1.176.274.505.411 1.08.411 1.722 0 .642-.137 1.216-.411 1.722zm12.462-4.319a4.438 4.438 0 00-1.669-1.668c-.697-.396-1.463-.587-2.311-.587-.766 0-1.45.19-2.039.587a3.745 3.745 0 00-1.135 1.217v-1.6h-1.614v13.751h1.614v-6.069c.301.52.684.93 1.135 1.23.589.397 1.259.588 2.039.588.848 0 1.614-.191 2.311-.587.698-.383 1.245-.944 1.669-1.682.411-.724.629-1.585.629-2.583 0-.998-.205-1.873-.629-2.597zm-1.45 4.415a2.95 2.95 0 01-1.149 1.134 3.282 3.282 0 01-1.587.383c-.465 0-.93-.123-1.395-.383a3.115 3.115 0 01-1.135-1.134c-.301-.492-.438-1.107-.438-1.818 0-.71.151-1.326.438-1.818.301-.492.67-.875 1.135-1.135.465-.26.93-.382 1.395-.382.575 0 1.108.123 1.587.382.479.26.862.63 1.149 1.135.287.492.438 1.107.438 1.818 0 .71-.151 1.326-.438 1.818zm20.997 2.829h-2.025l-3.843-4.715v4.715h-1.614v-9.294h1.614v3.267l3.433-3.267h2.025l-4.049 3.84 4.459 5.454zm9.261-8.201c-.301-.424-.725-.738-1.259-.957-.533-.218-1.163-.328-1.874-.328-.834 0-1.546.123-2.147.383-.589.26-1.067.52-1.409.765l.793 1.23c.151-.109.356-.232.616-.396.26-.15.574-.287.943-.41a3.8 3.8 0 011.218-.178c.506 0 .971.124 1.368.356.396.232.602.588.602 1.066v1.545c-.233-.165-.534-.301-.876-.424-.424-.15-.93-.233-1.532-.233-.807 0-1.505.124-2.106.37-.589.246-1.054.6-1.368 1.066-.329.45-.479 1.011-.479 1.667 0 .656.137 1.162.438 1.586.287.424.67.752 1.162.957a3.812 3.812 0 001.601.328c.643 0 1.231-.11 1.764-.328.52-.22.944-.547 1.259-.97.055-.083.109-.151.15-.233v1.34h1.614v-6.671c0-.601-.15-1.12-.451-1.53h-.027zm-1.519 5.96c-.232.355-.561.601-.985.765-.41.164-.889.246-1.436.246-.369 0-.697-.055-.998-.178a1.613 1.613 0 01-.712-.505c-.178-.219-.26-.492-.26-.82 0-.383.082-.698.26-.97.178-.274.438-.48.794-.63.355-.15.807-.218 1.34-.218.588 0 1.122.082 1.601.232.246.082.492.178.725.314v.37c0 .573-.124 1.038-.356 1.394h.027zm11.094 2.241h-2.025l-3.843-4.715v4.715h-1.628v-9.294h1.628v3.267l3.433-3.267h2.024l-4.048 3.84 4.459 5.454zm19.219-10.005v10.005h-1.628V84.39l-6.169 6.74V81.123h1.628v6.028l6.169-6.74zm3.775 7.08a3.17 3.17 0 001.135 1.19 3.121 3.121 0 001.628.437c.493 0 .971-.082 1.409-.233a3.87 3.87 0 001.149-.628 2.37 2.37 0 00.684-.834v2.023c-.328.383-.78.67-1.381.875a5.699 5.699 0 01-1.847.314c-.903 0-1.724-.205-2.449-.629a4.73 4.73 0 01-1.723-1.722c-.424-.738-.643-1.572-.643-2.501 0-.93.219-1.777.643-2.502a4.729 4.729 0 011.723-1.722c.725-.424 1.546-.629 2.449-.629.629 0 1.245.11 1.847.315.601.205 1.067.505 1.381.874v2.023c-.137-.314-.369-.587-.684-.847a3.844 3.844 0 00-1.149-.615 4.293 4.293 0 00-1.409-.233c-.602 0-1.149.137-1.628.424a3.072 3.072 0 00-1.135 1.19c-.273.505-.41 1.08-.41 1.722 0 .642.137 1.216.41 1.722v-.014zm15.129 2.925h-2.025l-3.843-4.715v4.715h-1.614v-9.294h1.614v3.267l3.433-3.267h2.025l-4.036 3.84 4.446 5.454zm10.546-9.294l-6.074 13.75h-1.819l2.544-5.768-3.556-7.982h1.928l2.599 6.41 2.558-6.41h1.82zm3.625 6.369a3.17 3.17 0 001.135 1.19 3.121 3.121 0 001.628.437c.492 0 .971-.082 1.409-.233a3.87 3.87 0 001.149-.628 2.37 2.37 0 00.684-.834v2.023c-.328.383-.78.67-1.382.875a5.693 5.693 0 01-1.846.314c-.903 0-1.724-.205-2.449-.629a4.73 4.73 0 01-1.723-1.722c-.424-.738-.643-1.572-.643-2.501 0-.93.219-1.777.643-2.502A4.729 4.729 0 01227 81.561c.725-.424 1.546-.629 2.449-.629.629 0 1.244.11 1.846.315.602.205 1.067.505 1.382.874v2.023c-.137-.314-.369-.587-.684-.847a3.844 3.844 0 00-1.149-.615 4.293 4.293 0 00-1.409-.233c-.602 0-1.149.137-1.628.424a3.072 3.072 0 00-1.135 1.19c-.274.505-.41 1.08-.41 1.722 0 .642.136 1.216.41 1.722v-.014zm9.616 0a3.17 3.17 0 001.135 1.19 3.121 3.121 0 001.628.437c.493 0 .971-.082 1.409-.233a3.87 3.87 0 001.149-.628c.329-.26.547-.547.684-.834v2.023c-.328.383-.78.67-1.381.875a5.699 5.699 0 01-1.847.314c-.903 0-1.724-.205-2.449-.629a4.73 4.73 0 01-1.723-1.722c-.424-.738-.643-1.572-.643-2.501 0-.93.219-1.777.643-2.502a4.729 4.729 0 011.723-1.722c.725-.424 1.546-.629 2.449-.629.629 0 1.245.11 1.847.315.601.205 1.067.505 1.381.874v2.023c-.137-.314-.369-.587-.684-.847a3.844 3.844 0 00-1.149-.615 4.293 4.293 0 00-1.409-.233c-.602 0-1.149.137-1.628.424a3.072 3.072 0 00-1.135 1.19c-.273.505-.41 1.08-.41 1.722 0 .642.137 1.216.41 1.722v-.014zm13.132-6.369v1.517h-1.929v7.777h-1.614v-7.777h-1.929v-1.517h5.472zm8.206 5.358c-.301-.342-.697-.574-1.217-.711a2.12 2.12 0 00-.315-.068c.465-.164.835-.41 1.122-.752.301-.342.438-.78.438-1.299 0-.601-.151-1.093-.438-1.462a2.524 2.524 0 00-1.163-.807 4.883 4.883 0 00-1.586-.246h-3.447v9.295h4.048c1.067 0 1.833-.246 2.299-.738.465-.492.697-1.094.697-1.79 0-.602-.15-1.08-.451-1.408l.013-.014zm-4.979-3.937h1.82c.478 0 .875.11 1.149.328.273.219.424.52.424.875 0 .178-.041.342-.11.492-.068.15-.178.3-.314.41a1.242 1.242 0 01-.493.274 2.37 2.37 0 01-.656.095h-1.82v-2.488.014zm3.365 6.083c-.287.26-.738.382-1.34.382h-2.025v-2.583h2.025c.314 0 .574.027.793.096.219.055.411.15.547.273.137.123.247.26.329.397a1.2 1.2 0 01.109.505c0 .37-.137.67-.438.93zm4.269-5.358a4.73 4.73 0 011.723-1.723c.725-.423 1.546-.628 2.449-.628.902 0 1.737.205 2.462.628a4.629 4.629 0 011.723 1.723c.424.738.643 1.558.643 2.501 0 .943-.219 1.763-.643 2.501a4.531 4.531 0 01-1.723 1.723 4.922 4.922 0 01-2.462.628c-.917 0-1.724-.205-2.449-.628a4.729 4.729 0 01-1.723-1.723c-.424-.738-.643-1.572-.643-2.501 0-.93.219-1.777.643-2.501zm1.422 4.223c.274.506.657.889 1.136 1.19a3.115 3.115 0 001.627.437c.602 0 1.149-.15 1.628-.438a3.058 3.058 0 001.135-1.189c.274-.492.411-1.066.411-1.722 0-.656-.137-1.217-.411-1.722a3.06 3.06 0 00-1.135-1.19c-.479-.286-1.026-.423-1.628-.423-.602 0-1.149.136-1.627.423a3.069 3.069 0 00-1.136 1.19c-.273.505-.41 1.08-.41 1.722 0 .642.137 1.216.41 1.722z" fill="#FFF"/></svg>