<?xml version="1.0" encoding="utf-8"?><svg viewBox="0 0 802 185" xmlns="http://www.w3.org/2000/svg" xmlns:xlink="http://www.w3.org/1999/xlink"><style>:root>svg{display:none}:root>svg:target{display:block}</style><svg fill="none" viewBox="0 0 71 37" id="Rectangle_49" xmlns="http://www.w3.org/2000/svg"><path d="M69 1.59 36.118 34.471a1 1 0 0 1-1.415 0L1.822 1.589" stroke="url(#fa)" stroke-width="3" stroke-linecap="round"/><defs><linearGradient id="fa" x1="62.419" y1="-11.114" x2="-2.781" y2="-.9" gradientUnits="userSpaceOnUse"><stop stop-color="#E3B373"/><stop offset=".33" stop-color="#FEE0B7"/><stop offset=".552" stop-color="#FEE5C5"/><stop offset=".781" stop-color="#DEA760"/><stop offset="1" stop-color="#C3843E"/></linearGradient></defs></svg><svg fill="none" viewBox="0 0 32 24" id="burgerMenu" xmlns="http://www.w3.org/2000/svg"><g stroke-width="2" stroke-linecap="round"><path d="M31 1H1" stroke="url(#aa)"/><path d="M31 12H1" stroke="url(#ab)"/><path d="M31 23H1" stroke="url(#ac)"/></g><defs><linearGradient id="aa" x1="-1.734" y1="1.287" x2="-1.626" y2="3.64" gradientUnits="userSpaceOnUse"><stop stop-color="#E3B373"/><stop offset=".33" stop-color="#FEE0B7"/><stop offset=".552" stop-color="#FEE5C5"/><stop offset=".781" stop-color="#DEA760"/><stop offset="1" stop-color="#C3843E"/></linearGradient><linearGradient id="ab" x1="-1.734" y1="12.287" x2="-1.626" y2="14.64" gradientUnits="userSpaceOnUse"><stop stop-color="#E3B373"/><stop offset=".33" stop-color="#FEE0B7"/><stop offset=".552" stop-color="#FEE5C5"/><stop offset=".781" stop-color="#DEA760"/><stop offset="1" stop-color="#C3843E"/></linearGradient><linearGradient id="ac" x1="-1.734" y1="23.287" x2="-1.626" y2="25.64" gradientUnits="userSpaceOnUse"><stop stop-color="#E3B373"/><stop offset=".33" stop-color="#FEE0B7"/><stop offset=".552" stop-color="#FEE5C5"/><stop offset=".781" stop-color="#DEA760"/><stop offset="1" stop-color="#C3843E"/></linearGradient></defs></svg><svg fill="none" viewBox="0 0 71 37" id="header-slide-button" xmlns="http://www.w3.org/2000/svg"><path d="M69 1.59 36.118 34.471a1 1 0 0 1-1.415 0L1.822 1.589" stroke="url(#ba)" stroke-width="3" stroke-linecap="round"/><defs><linearGradient id="ba" x1="62.419" y1="-11.114" x2="-2.781" y2="-.9" gradientUnits="userSpaceOnUse"><stop stop-color="#E3B373"/><stop offset=".33" stop-color="#FEE0B7"/><stop offset=".552" stop-color="#FEE5C5"/><stop offset=".781" stop-color="#DEA760"/><stop offset="1" stop-color="#C3843E"/></linearGradient></defs></svg><svg viewBox="0 0 51 51" id="instagram" xmlns="http://www.w3.org/2000/svg"><path d="M36.489 51H14.51C6.53 51 0 44.504 0 36.489V14.51C0 6.53 6.529 0 14.511 0H36.49C44.504 0 51 6.529 51 14.511V36.49C51 44.504 44.504 51 36.489 51zM14.51 4.363c-5.59 0-10.148 4.557-10.148 10.148V36.49c0 5.59 4.557 10.148 10.148 10.148h21.98c5.59 0 10.148-4.557 10.148-10.148V14.51c0-5.59-4.557-10.148-10.148-10.148H14.51z"/><path d="M25.5 38.557c-7.207 0-13.057-5.85-13.057-13.057 0-7.207 5.85-13.057 13.057-13.057 7.207 0 13.057 5.85 13.057 13.057 0 7.207-5.85 13.057-13.057 13.057zm0-21.75c-4.783 0-8.694 3.91-8.694 8.693 0 4.783 3.91 8.694 8.694 8.694 4.783 0 8.694-3.91 8.694-8.694 0-4.783-3.91-8.694-8.694-8.694zM42.274 11.7a3.117 3.117 0 0 1-3.135 3.135 3.117 3.117 0 0 1-3.135-3.135 3.117 3.117 0 0 1 3.135-3.135 3.138 3.138 0 0 1 3.135 3.135z"/></svg><svg fill="none" viewBox="0 0 24 24" id="menu-cansel" xmlns="http://www.w3.org/2000/svg"><path d="M22.607 1.393 1.394 22.607m21.213 0L1.394 1.393" stroke="#fff" stroke-width="2" stroke-linecap="round"/></svg><svg fill="none" viewBox="0 0 331 95" id="menu-content" xmlns="http://www.w3.org/2000/svg"><path fill-rule="evenodd" clip-rule="evenodd" d="m259.446 14.16-.355.657c-4.268-1.845-8.673-3.267-13.118-4.415a87.14 87.14 0 0 0-6.744-1.476 67.006 67.006 0 0 0-2.604-.438 86.94 86.94 0 0 1-.788-.123l-.824-.11a91.518 91.518 0 0 0-2.596-.327 127.6 127.6 0 0 0-6.853-.574c-2.285-.15-4.569-.26-6.853-.328-4.569-.15-9.151-.137-13.72.164-4.569.314-9.11.875-13.624 1.695-.918.154-1.826.345-2.733.535l-.646.134-1.737.342c-.588.123-1.163.232-1.751.328l-1.751.3-1.764.247c-.589.082-1.177.15-1.765.219-.588.068-1.176.136-1.778.177a62.135 62.135 0 0 1-7.141.315H170l-.068 34.253c0 5.782 2.271 8.133 5.458 8.133 2.517 0 4.61-1.421 7.222-5.276.247-.342 1.245.41 1.095.752-3.529 5.536-6.744 8.898-11.08 8.474-5.444-.533-8.659-3.28-8.659-11.659V15.145l-.014-4.06a15.742 15.742 0 0 1-.686-.093l-.107-.016c-2.366-.355-4.705-.861-6.962-1.64-1.136-.397-2.244-.834-3.311-1.38a21.76 21.76 0 0 1-1.559-.876c-.506-.314-.999-.642-1.477-1.066l.478-.574c.438.287.958.56 1.464.807.52.232 1.04.45 1.573.642 1.067.396 2.161.71 3.269.97s2.23.452 3.365.616a40.31 40.31 0 0 0 3.694.328c.095.006.191.013.287.013 2.831-3.185 3.597-4.442 5.28-8.816h.779v8.748c2.34-.137 4.679-.424 7.004-.78 2.257-.355 4.5-.792 6.73-1.325.561-.123 1.122-.26 1.669-.396l1.669-.41c.367-.088.735-.178 1.103-.269h.001a77.482 77.482 0 0 1 2.356-.552 110.49 110.49 0 0 1 6.99-1.325c2.353-.356 4.706-.643 7.072-.875 2.367-.205 4.733-.383 7.113-.451a95.32 95.32 0 0 1 7.127 0c1.19.04 2.38.123 3.556.218.343.036.687.07 1.032.103.837.082 1.678.164 2.511.28 1.177.15 2.353.328 3.529.52l.948.175c.852.157 1.707.315 2.554.494.925.185 1.85.396 2.768.605h.002c.236.054.47.108.705.16l.229.058c1.074.268 2.158.539 3.218.845a97.428 97.428 0 0 1 6.771 2.146c4.445 1.613 8.768 3.622 12.721 6.178l.027.014zM105.108.015c-2.835 2.28-4.164 2.496-5.974 2.79l-.072.012 1.204 3.007-21.216 52.01h2.913l6.84-16.39h25.88l6.716 16.403h6.06L105.108.014zm-15.02 38.6 11.764-28.978 11.764 28.978H90.089zm62.404-22.307c-3.431 0-4.735 1.369-7.489 4.26a115.25 115.25 0 0 1-2.196 2.26l-2.148 2.146s-.027-8.489-.082-8.584c-1.422.847-3.789 1.462-5.977 1.9v39.543h6.059V26.736l5.677-5.604c.766-.766 1.532-1.08 2.298-1.08 1.587 0 3.094 1.493 4.536 2.92l.074.073c.034.035.072.069.109.103l.077.07.033.032 3.337-5.781c-1.285-.739-3.009-1.176-4.322-1.176l.014.014zm125.332 4.26c2.754-2.892 4.058-4.26 7.489-4.26l-.041-.014c1.327 0 3.05.438 4.336 1.176l-3.338 5.781-.04-.039-.069-.063a3.684 3.684 0 0 1-.11-.103l-.074-.073c-1.441-1.427-2.949-2.92-4.535-2.92-.766 0-1.532.314-2.298 1.08l-5.677 5.604v31.096h-6.046V18.29c2.188-.438 4.555-1.053 5.978-1.9.054.095.082 8.584.082 8.584l2.147-2.146c.84-.837 1.557-1.59 2.196-2.26zM248.94 57.832c4.35.383 7.551-2.693 11.08-7.764.164-.3-.834-.997-1.094-.683-2.599 3.526-4.692 4.839-7.209 4.839-3.187 0-5.458-2.146-5.458-7.45V18.74h8.933l.711-2.31h-9.562v-3.937l-.073-.023c-1.188-.368-2.927-.908-5.808-1.002v4.962h-8.399l-.411 2.31h8.632v28.417c0 7.682 3.214 10.183 8.658 10.675zM246.424.205v5.686c-1.16-.533-2.044-.761-3.102-1.035l-.592-.154c.52-.793 2.148-3.69 2.422-4.497 0 0 0-.014.027-.027h1.231v.027h.014zm-55.413 56.93h6.046c0-4.265-.014-29.347-.028-29.388-1.436.848-3.83 1.477-6.018 1.9v27.488zM327.087 16.39 315.802 44l-11.531-27.61h-7.824l15.512 36.632-4.227 10.197-.212.488-.001.004c-1.923 4.447-4.729 10.935-9.923 10.935-2.449 0-3.461-2.283-3.666-4.661h-6.497c.15.587.396 1.134.711 1.68 1.081 1.832 3.379 4.129 8.522 4.129 5.608 0 10.916-4.128 14.978-13.765L331 16.389h-3.913zm-95.054 36.017c.985-1.996 1.902-5.18.698-8.065l.027.014c-2.001-4.761-8.143-7.523-8.835-7.834l-.056-.026c-1.546-.724-4.391-1.777-8.549-3.17a1.594 1.594 0 0 1-.274-.097c-2.38-.956-3.953-1.995-4.705-3.102-.78-1.121-1.163-2.447-1.163-3.95 0-2.283.821-4.224 2.476-5.837 1.655-1.613 3.885-2.42 6.702-2.42 1.683 0 3.174.288 4.514.875a11.058 11.058 0 0 1 3.557 2.502c1.026 1.08 1.546 1.64 1.546 1.64l.342-.055-1.957-5.14a.482.482 0 0 1-.232-.054c-.178-.095-1.067-.3-2.681-.615-1.601-.314-3.091-.478-4.473-.478-3.557 0-6.429 1.08-8.618 3.24-2.202 2.159-3.296 4.824-3.296 8.01 0 1.735.424 3.444 1.285 5.097.849 1.668 1.916 2.912 3.201 3.746 1.272.834 3.488 1.804 6.635 2.911 3.159 1.08 5.321 2.01 6.456 2.761 1.135.752 2.024 1.627 2.654 2.625.643.997.957 2.214.957 3.622 0 2.323-.916 4.32-2.736 5.973-1.819 1.654-4.486 2.488-7.988 2.488-.958 0-3.611-.41-5.006-1.094-1.943-.957-3.516-2.16-4.72-3.608-.383-.465-.725-.93-1.039-1.436a11.049 11.049 0 0 1-.985-1.817 13.019 13.019 0 0 1-.643-1.682c-.575-1.831-.848-2.802-.848-2.802l-.424-.136-.698 7.066c.031.018.163.133.377.318h.001v.001a53.817 53.817 0 0 0 2.235 1.855c.123.095 3.679 2.61 5.28 3.403 1.053.533 2.093.943 3.119 1.244 2.995.916 6.278 1.107 9.082.191 3.776-1.244 6.949-2.487 8.782-6.164zm-33.075-32.204c-1.272 0-2.462 1.04-3.365 2.242-.889 1.203-1.682 2.802-1.682 4.51 0-1.694-.78-3.294-1.683-4.51-.903-1.19-2.093-2.242-3.365-2.242.63 0 1.259-.273 1.82-.683.56-.41 1.094-.984 1.545-1.586.903-1.203 1.683-2.802 1.683-4.497 0 1.695.779 3.294 1.682 4.497.452.602.971 1.176 1.546 1.586.574.41 1.19.683 1.819.683zm-193.5 20.38v10.771c0 .78.014 1.476.04 2.105a7.62 7.62 0 0 0 .22 1.572c.123.424.3.738.533.957.233.219.561.342.985.342.63 0 1.218-.301 1.765-.889a4.24 4.24 0 0 0 1.053-2.146h.397v3.267a.907.907 0 0 0-.67.273 5.379 5.379 0 0 1-1.013.67c-.438.233-1.08.355-1.942.355-1.08 0-1.915-.205-2.503-.628a3.601 3.601 0 0 1-1.3-1.654c-.274-.684-.424-1.45-.465-2.283a51.634 51.634 0 0 1-.068-2.542V40.596H0v-1.517h2.503V35.1c0-.506-.068-.97-.205-1.408-.137-.437-.574-.67-1.327-.697v-.45l4.473-1.436v7.955h5.007v1.517H5.458zm26.359 14.339c0 .246.027.505.096.779.055.287.15.547.287.779.137.246.287.451.451.629.165.177.37.273.602.273v.451h-5.772v-.45c.205 0 .396-.097.588-.274.178-.178.342-.383.465-.629a2.54 2.54 0 0 0 .287-.78c.055-.286.096-.546.096-.778v-8.325c0-1.08-.15-2.009-.451-2.815-.301-.807-.698-1.477-1.204-2.01a4.884 4.884 0 0 0-1.724-1.189 5.397 5.397 0 0 0-1.942-.382c-.657 0-1.3.123-1.942.382a5.534 5.534 0 0 0-1.697 1.053c-.492.45-.889.998-1.203 1.626-.315.643-.465 1.353-.465 2.119v9.527c0 .246.027.506.095.78.055.286.15.546.288.778.136.246.287.451.451.629.164.178.37.273.602.273v.452H13.91v-.452c.206 0 .397-.095.589-.273a2.42 2.42 0 0 0 .465-.629c.136-.232.232-.506.287-.779.055-.287.096-.547.096-.779V32.053c0-.506-.069-.984-.22-1.435-.15-.451-.587-.684-1.299-.711v-.451l4.473-1.38v12.93c.206-.232.48-.506.807-.78a7.041 7.041 0 0 1 1.19-.806c.466-.26.999-.464 1.615-.628.615-.164 1.34-.246 2.174-.246 1.396 0 2.6.232 3.584.71.985.479 1.792 1.094 2.421 1.86a7.46 7.46 0 0 1 1.368 2.5c.288.916.424 1.791.424 2.666v8.625l-.068.014zm9.055-3.144a10.98 10.98 0 0 1-.766-2.98v-.014h15.526c0-1.448-.178-2.802-.534-4.018-.355-1.217-.903-2.283-1.628-3.171-.738-.902-1.655-1.6-2.776-2.105-1.122-.506-2.422-.766-3.913-.766-1.668 0-3.105.287-4.295.848-1.19.56-2.16 1.298-2.927 2.214a9.205 9.205 0 0 0-1.696 3.062c-.37 1.134-.561 2.242-.561 3.349 0 1.722.287 3.212.834 4.47.548 1.257 1.286 2.282 2.216 3.089a9.004 9.004 0 0 0 3.201 1.79c1.218.397 2.49.588 3.83.588 1.67 0 3.01-.205 4.022-.602 1.012-.396 1.82-.779 2.421-1.134.301-.178.56-.328.78-.451.219-.123.424-.178.602-.178V52.42h-.397a4.105 4.105 0 0 1-1.012 1.764 6.865 6.865 0 0 1-1.683 1.325 8.038 8.038 0 0 1-2.038.834 8.172 8.172 0 0 1-2.08.287c-1.23 0-2.297-.205-3.227-.642a7.333 7.333 0 0 1-2.353-1.722 8.568 8.568 0 0 1-1.546-2.488zm3.01-10.935c.766-.424 1.668-.629 2.708-.629l-.014.014c1.013 0 1.902.205 2.681.601a5.62 5.62 0 0 1 1.929 1.586 7.81 7.81 0 0 1 1.19 2.242c.274.833.438 1.68.465 2.542H40.093a11.06 11.06 0 0 1 .588-2.501c.3-.834.725-1.586 1.258-2.242a6.551 6.551 0 0 1 1.943-1.613z" fill="#FFF"/><path d="M72.88 90.418h-1.819L69.94 85.02l-3.133 6.028-3.078-6.014-1.108 5.385h-1.819l2.421-10.005 3.584 7.38 3.639-7.38 2.435 10.005zm9.111-8.201c-.3-.424-.725-.738-1.245-.957-.533-.218-1.162-.328-1.874-.328-.834 0-1.545.123-2.147.383-.588.26-1.067.52-1.423.765l.794 1.23c.15-.109.355-.232.615-.396.26-.15.575-.287.944-.41a4.15 4.15 0 0 1 1.217-.178c.507 0 .972.124 1.368.356.397.232.588.588.588 1.066v1.545a4.355 4.355 0 0 0-.875-.424c-.424-.15-.93-.233-1.532-.233-.807 0-1.505.124-2.107.37-.588.246-1.053.6-1.367 1.066-.329.45-.493 1.011-.493 1.667 0 .656.15 1.162.438 1.586.287.424.67.752 1.163.957a3.898 3.898 0 0 0 1.6.328 4.49 4.49 0 0 0 1.75-.328 2.98 2.98 0 0 0 1.26-.97c.054-.07.109-.151.15-.233v1.326h1.614v-6.67c0-.602-.15-1.121-.451-1.532l.013.014zm-1.518 5.96c-.233.355-.561.601-.985.765a3.957 3.957 0 0 1-1.436.246 2.48 2.48 0 0 1-.985-.178 1.61 1.61 0 0 1-.711-.505c-.178-.219-.26-.492-.26-.82 0-.383.082-.698.26-.97.177-.274.437-.48.793-.63.355-.15.807-.218 1.34-.218.588 0 1.122.082 1.6.232.247.082.48.178.726.314v.37c0 .573-.11 1.038-.356 1.394h.014zm12.023-6.971V90.5h-1.628v-4.14h-5.157v4.14h-1.614v-9.294h1.614v3.635h5.157v-3.635h1.628zm9.411-.793v10.005h-1.614V84.39l-6.169 6.74V81.123h1.614v6.028l6.169-6.74zm9.138 10.005h-2.025l-3.843-4.715v4.715h-1.615v-9.294h1.615v3.267l3.433-3.267h2.024l-4.048 3.84 4.459 5.454zm13.911-7.148a4.595 4.595 0 0 0-1.724-1.709c-.725-.424-1.545-.629-2.462-.629-.916 0-1.71.205-2.448.629a4.625 4.625 0 0 0-2.271 3.199h-1.71v-3.636h-1.614v9.294h1.614v-4.141h1.642c.068.724.259 1.394.615 1.995a4.534 4.534 0 0 0 1.724 1.723c.725.423 1.545.628 2.448.628s1.737-.205 2.462-.628a4.63 4.63 0 0 0 1.724-1.723c.424-.724.629-1.558.629-2.501 0-.943-.205-1.777-.629-2.515v.014zm-1.423 4.223a3.117 3.117 0 0 1-1.135 1.176 3.12 3.12 0 0 1-1.628.437c-.602 0-1.149-.137-1.628-.437a3.131 3.131 0 0 1-1.135-1.176c-.274-.505-.41-1.066-.41-1.722 0-.656.136-1.217.41-1.722a2.946 2.946 0 0 1 1.135-1.176c.479-.287 1.013-.424 1.628-.424.616 0 1.149.137 1.628.424.479.287.862.67 1.135 1.176.274.505.411 1.08.411 1.722 0 .642-.137 1.216-.411 1.722zm12.462-4.319a4.438 4.438 0 0 0-1.669-1.668c-.697-.396-1.463-.587-2.311-.587-.766 0-1.45.19-2.039.587a3.745 3.745 0 0 0-1.135 1.217v-1.6h-1.614v13.751h1.614v-6.069c.301.52.684.93 1.135 1.23.589.397 1.259.588 2.039.588.848 0 1.614-.191 2.311-.587.698-.383 1.245-.944 1.669-1.682.411-.724.629-1.585.629-2.583 0-.998-.205-1.873-.629-2.597zm-1.45 4.415a2.95 2.95 0 0 1-1.149 1.134 3.282 3.282 0 0 1-1.587.383c-.465 0-.93-.123-1.395-.383a3.115 3.115 0 0 1-1.135-1.134c-.301-.492-.438-1.107-.438-1.818 0-.71.151-1.326.438-1.818.301-.492.67-.875 1.135-1.135.465-.26.93-.382 1.395-.382.575 0 1.108.123 1.587.382.479.26.862.63 1.149 1.135.287.492.438 1.107.438 1.818 0 .71-.151 1.326-.438 1.818zm20.997 2.829h-2.025l-3.843-4.715v4.715h-1.614v-9.294h1.614v3.267l3.433-3.267h2.025l-4.049 3.84 4.459 5.454zm9.261-8.201c-.301-.424-.725-.738-1.259-.957-.533-.218-1.163-.328-1.874-.328-.834 0-1.546.123-2.147.383-.589.26-1.067.52-1.409.765l.793 1.23c.151-.109.356-.232.616-.396.26-.15.574-.287.943-.41a3.8 3.8 0 0 1 1.218-.178c.506 0 .971.124 1.368.356.396.232.602.588.602 1.066v1.545c-.233-.165-.534-.301-.876-.424-.424-.15-.93-.233-1.532-.233-.807 0-1.505.124-2.106.37-.589.246-1.054.6-1.368 1.066-.329.45-.479 1.011-.479 1.667 0 .656.137 1.162.438 1.586.287.424.67.752 1.162.957a3.812 3.812 0 0 0 1.601.328c.643 0 1.231-.11 1.764-.328.52-.22.944-.547 1.259-.97.055-.083.109-.151.15-.233v1.34h1.614v-6.671c0-.601-.15-1.12-.451-1.53h-.027zm-1.519 5.96c-.232.355-.561.601-.985.765-.41.164-.889.246-1.436.246-.369 0-.697-.055-.998-.178a1.613 1.613 0 0 1-.712-.505c-.178-.219-.26-.492-.26-.82 0-.383.082-.698.26-.97.178-.274.438-.48.794-.63.355-.15.807-.218 1.34-.218.588 0 1.122.082 1.601.232.246.082.492.178.725.314v.37c0 .573-.124 1.038-.356 1.394h.027zm11.094 2.241h-2.025l-3.843-4.715v4.715h-1.628v-9.294h1.628v3.267l3.433-3.267h2.024l-4.048 3.84 4.459 5.454zm19.219-10.005v10.005h-1.628V84.39l-6.169 6.74V81.123h1.628v6.028l6.169-6.74zm3.775 7.08a3.17 3.17 0 0 0 1.135 1.19 3.121 3.121 0 0 0 1.628.437c.493 0 .971-.082 1.409-.233a3.87 3.87 0 0 0 1.149-.628 2.37 2.37 0 0 0 .684-.834v2.023c-.328.383-.78.67-1.381.875a5.699 5.699 0 0 1-1.847.314c-.903 0-1.724-.205-2.449-.629a4.73 4.73 0 0 1-1.723-1.722c-.424-.738-.643-1.572-.643-2.501 0-.93.219-1.777.643-2.502a4.729 4.729 0 0 1 1.723-1.722c.725-.424 1.546-.629 2.449-.629.629 0 1.245.11 1.847.315.601.205 1.067.505 1.381.874v2.023c-.137-.314-.369-.587-.684-.847a3.844 3.844 0 0 0-1.149-.615 4.293 4.293 0 0 0-1.409-.233c-.602 0-1.149.137-1.628.424a3.072 3.072 0 0 0-1.135 1.19c-.273.505-.41 1.08-.41 1.722 0 .642.137 1.216.41 1.722v-.014zm15.129 2.925h-2.025l-3.843-4.715v4.715h-1.614v-9.294h1.614v3.267l3.433-3.267h2.025l-4.036 3.84 4.446 5.454zm10.546-9.294-6.074 13.75h-1.819l2.544-5.768-3.556-7.982h1.928l2.599 6.41 2.558-6.41h1.82zm3.625 6.369a3.17 3.17 0 0 0 1.135 1.19 3.121 3.121 0 0 0 1.628.437c.492 0 .971-.082 1.409-.233a3.87 3.87 0 0 0 1.149-.628 2.37 2.37 0 0 0 .684-.834v2.023c-.328.383-.78.67-1.382.875a5.693 5.693 0 0 1-1.846.314c-.903 0-1.724-.205-2.449-.629a4.73 4.73 0 0 1-1.723-1.722c-.424-.738-.643-1.572-.643-2.501 0-.93.219-1.777.643-2.502A4.729 4.729 0 0 1 227 81.561c.725-.424 1.546-.629 2.449-.629.629 0 1.244.11 1.846.315.602.205 1.067.505 1.382.874v2.023c-.137-.314-.369-.587-.684-.847a3.844 3.844 0 0 0-1.149-.615 4.293 4.293 0 0 0-1.409-.233c-.602 0-1.149.137-1.628.424a3.072 3.072 0 0 0-1.135 1.19c-.274.505-.41 1.08-.41 1.722 0 .642.136 1.216.41 1.722v-.014zm9.616 0a3.17 3.17 0 0 0 1.135 1.19 3.121 3.121 0 0 0 1.628.437c.493 0 .971-.082 1.409-.233a3.87 3.87 0 0 0 1.149-.628c.329-.26.547-.547.684-.834v2.023c-.328.383-.78.67-1.381.875a5.699 5.699 0 0 1-1.847.314c-.903 0-1.724-.205-2.449-.629a4.73 4.73 0 0 1-1.723-1.722c-.424-.738-.643-1.572-.643-2.501 0-.93.219-1.777.643-2.502a4.729 4.729 0 0 1 1.723-1.722c.725-.424 1.546-.629 2.449-.629.629 0 1.245.11 1.847.315.601.205 1.067.505 1.381.874v2.023c-.137-.314-.369-.587-.684-.847a3.844 3.844 0 0 0-1.149-.615 4.293 4.293 0 0 0-1.409-.233c-.602 0-1.149.137-1.628.424a3.072 3.072 0 0 0-1.135 1.19c-.273.505-.41 1.08-.41 1.722 0 .642.137 1.216.41 1.722v-.014zm13.132-6.369v1.517h-1.929v7.777h-1.614v-7.777h-1.929v-1.517h5.472zm8.206 5.358c-.301-.342-.697-.574-1.217-.711a2.12 2.12 0 0 0-.315-.068c.465-.164.835-.41 1.122-.752.301-.342.438-.78.438-1.299 0-.601-.151-1.093-.438-1.462a2.524 2.524 0 0 0-1.163-.807 4.883 4.883 0 0 0-1.586-.246h-3.447v9.295h4.048c1.067 0 1.833-.246 2.299-.738.465-.492.697-1.094.697-1.79 0-.602-.15-1.08-.451-1.408l.013-.014zm-4.979-3.937h1.82c.478 0 .875.11 1.149.328.273.219.424.52.424.875 0 .178-.041.342-.11.492-.068.15-.178.3-.314.41a1.242 1.242 0 0 1-.493.274 2.37 2.37 0 0 1-.656.095h-1.82v-2.488.014zm3.365 6.083c-.287.26-.738.382-1.34.382h-2.025v-2.583h2.025c.314 0 .574.027.793.096.219.055.411.15.547.273.137.123.247.26.329.397a1.2 1.2 0 0 1 .109.505c0 .37-.137.67-.438.93zm4.269-5.358a4.73 4.73 0 0 1 1.723-1.723c.725-.423 1.546-.628 2.449-.628.902 0 1.737.205 2.462.628a4.629 4.629 0 0 1 1.723 1.723c.424.738.643 1.558.643 2.501 0 .943-.219 1.763-.643 2.501a4.531 4.531 0 0 1-1.723 1.723 4.922 4.922 0 0 1-2.462.628c-.917 0-1.724-.205-2.449-.628a4.729 4.729 0 0 1-1.723-1.723c-.424-.738-.643-1.572-.643-2.501 0-.93.219-1.777.643-2.501zm1.422 4.223c.274.506.657.889 1.136 1.19a3.115 3.115 0 0 0 1.627.437c.602 0 1.149-.15 1.628-.438a3.058 3.058 0 0 0 1.135-1.189c.274-.492.411-1.066.411-1.722 0-.656-.137-1.217-.411-1.722a3.06 3.06 0 0 0-1.135-1.19c-.479-.286-1.026-.423-1.628-.423-.602 0-1.149.136-1.627.423a3.069 3.069 0 0 0-1.136 1.19c-.273.505-.41 1.08-.41 1.722 0 .642.137 1.216.41 1.722z" fill="#FFF"/></svg><svg fill="none" viewBox="0 0 23 12" id="summary-pointer" xmlns="http://www.w3.org/2000/svg"><path d="M22.076.538 11.538 11.076 1 .538" stroke="#000" stroke-linecap="round"/></svg><svg fill="none" viewBox="0 0 802 185" id="theArtistry" xmlns="http://www.w3.org/2000/svg"><path fill-rule="evenodd" clip-rule="evenodd" d="m628.629 34.81-.862 1.59c-10.341-4.472-21.013-7.916-31.784-10.698-5.403-1.424-10.838-2.583-16.34-3.577-2.084-.406-4.208-.735-6.31-1.06h-.006a526.48 526.48 0 0 1-1.904-.298c-.665-.088-1.33-.178-1.996-.268-2.087-.282-4.179-.566-6.289-.791-5.535-.63-11.07-1.06-16.605-1.391-5.535-.365-11.07-.63-16.605-.795-11.07-.365-22.173-.331-33.243.397a299.531 299.531 0 0 0-33.01 4.107c-2.223.375-4.424.836-6.621 1.296h-.002l-1.564.327-4.209.828a95.433 95.433 0 0 1-4.242.794l-4.243.73-4.275.595c-1.425.199-2.85.364-4.276.53-1.425.166-2.85.331-4.308.43-5.734.564-11.501.862-17.301.762h-.729l-.166 82.996c0 14.009 5.502 19.706 13.224 19.706 6.099 0 11.17-3.445 17.5-12.784.596-.828 3.016.993 2.651 1.821-8.551 13.413-16.339 21.56-26.846 20.534-13.191-1.292-20.979-7.949-20.979-28.25V37.194l-.034-9.836a37.436 37.436 0 0 1-1.663-.226l-.259-.039c-5.734-.861-11.401-2.087-16.87-3.974-2.751-.96-5.435-2.02-8.02-3.345a52.656 52.656 0 0 1-3.779-2.12c-1.226-.762-2.419-1.556-3.579-2.583l1.16-1.391c1.06.695 2.32 1.358 3.546 1.954a54.053 54.053 0 0 0 3.812 1.556c2.585.961 5.236 1.723 7.921 2.352 2.684.63 5.402 1.093 8.153 1.49a97.46 97.46 0 0 0 8.253.762c.232 0 .464.017.696.033.232.017.464.033.696.033 6.86-7.716 8.716-10.763 12.793-21.361h1.889v21.196c5.668-.332 11.335-1.027 16.97-1.888a211.666 211.666 0 0 0 16.306-3.213 144.59 144.59 0 0 0 4.044-.96l4.043-.994c.891-.212 1.782-.43 2.675-.65h.001c1.894-.465 3.794-.931 5.709-1.337a267.649 267.649 0 0 1 16.936-3.212 331.465 331.465 0 0 1 17.136-2.12c5.733-.497 11.467-.927 17.234-1.093 5.767-.198 11.534-.232 17.268 0 2.883.1 5.767.298 8.617.53.831.087 1.664.168 2.499.25h.001c2.029.197 4.065.396 6.084.677 2.85.365 5.701.795 8.551 1.259.763.143 1.528.284 2.294.426h.003c2.063.38 4.134.762 6.188 1.197 2.24.448 4.481.958 6.705 1.465l.02.005.007.001h.002c.563.129 1.124.257 1.684.383l.557.14h.001c2.602.65 5.227 1.304 7.794 2.046 5.535 1.557 11.004 3.246 16.406 5.2 10.772 3.908 21.245 8.776 30.823 14.97l.067.033zM254.673.532c-6.869 5.524-10.09 6.048-14.474 6.76l-.176.03 2.917 7.285-51.405 126.017h7.059l16.572-39.709h62.707l16.273 39.742h14.683L254.673.532zm-36.392 93.527 28.504-70.212 28.503 70.212h-57.007zm151.2-54.05c-8.312 0-11.472 3.317-18.145 10.322-1.548 1.625-3.285 3.449-5.32 5.476l-5.204 5.2s-.066-20.567-.199-20.799c-3.446 2.053-9.18 3.544-14.483 4.604v95.812h14.682V65.279L354.567 51.7c1.856-1.855 3.712-2.616 5.568-2.616 3.845 0 7.497 3.617 10.989 7.075l.18.178c.083.082.173.165.264.247l.001.001c.091.083.183.166.265.249l8.087-14.01c-3.115-1.788-7.291-2.848-10.473-2.848l.033.033zm303.676 10.322c6.673-7.005 9.833-10.322 18.145-10.322l-.099-.033c3.215 0 7.391 1.06 10.506 2.848l-8.087 14.01a4.28 4.28 0 0 0-.136-.131l-.082-.076-.047-.042-.002-.001c-.09-.083-.181-.165-.263-.247l-.18-.178c-3.492-3.458-7.144-7.075-10.989-7.075-1.856 0-3.712.761-5.568 2.616L662.6 65.28v75.345h-14.649V44.811c5.303-1.06 11.037-2.55 14.484-4.603.132.232.198 20.799.198 20.799l5.204-5.2c2.03-2.023 3.764-3.843 5.31-5.465l.003-.003.005-.006.002-.002zm-69.984 90.293c10.54.927 18.296-6.524 26.846-18.812.398-.728-2.021-2.417-2.651-1.655-6.297 8.544-11.368 11.724-17.467 11.724-7.722 0-13.224-5.2-13.224-18.05V45.904h21.643l1.723-5.597h-23.167V30.77l-.177-.055c-2.879-.894-7.093-2.202-14.074-2.429v12.022h-20.35l-.995 5.597h20.914v68.854c0 18.613 7.788 24.674 20.979 25.866zM597.076.995v13.778c-2.809-1.291-4.952-1.845-7.517-2.508-.461-.12-.937-.242-1.432-.373 1.259-1.921 5.203-8.943 5.866-10.897 0 0 0-.033.067-.066h2.982v.066h.034zm-134.264 137.94h14.649c0-10.333-.033-71.106-.066-71.205-3.48 2.053-9.28 3.576-14.583 4.603v66.602zm329.709-98.727-27.343 66.9-27.94-66.9H718.28l37.584 88.758-10.241 24.707-.495 1.144-.022.049c-4.659 10.775-11.457 26.494-24.042 26.494-5.933 0-8.385-5.531-8.882-11.294h-15.743c.364 1.425.961 2.749 1.723 4.074 2.618 4.438 8.186 10.002 20.648 10.002 13.589 0 26.449-10.002 36.292-33.351L802 40.208h-9.479zm-230.313 87.268c2.386-4.836 4.607-12.552 1.69-19.54l.066.033c-4.847-11.537-19.73-18.228-21.408-18.982l-.135-.061c-3.745-1.756-10.639-4.306-20.714-7.684-.232-.066-.464-.132-.663-.232-5.767-2.318-9.578-4.835-11.401-7.518-1.89-2.715-2.818-5.928-2.818-9.571 0-5.53 1.989-10.234 5.999-14.142 4.011-3.908 9.413-5.862 16.241-5.862 4.076 0 7.689.696 10.937 2.12 3.248 1.424 6.098 3.444 8.617 6.06 2.486 2.617 3.745 3.975 3.745 3.975l.829-.133-4.74-12.452c-.198 0-.364-.033-.563-.133-.431-.232-2.585-.728-6.496-1.49-3.878-.762-7.49-1.16-10.838-1.16-8.617 0-15.577 2.617-20.88 7.85-5.336 5.233-7.988 11.69-7.988 19.407 0 4.207 1.028 8.346 3.116 12.354 2.055 4.04 4.64 7.054 7.755 9.074 3.083 2.02 8.452 4.372 16.075 7.055 7.656 2.616 12.892 4.868 15.643 6.69 2.751 1.821 4.906 3.941 6.43 6.358 1.558 2.418 2.32 5.366 2.32 8.777 0 5.63-2.22 10.465-6.629 14.473-4.408 4.007-10.87 6.027-19.355 6.027-2.32 0-8.75-.993-12.131-2.649-4.706-2.319-8.517-5.233-11.434-8.744a31.956 31.956 0 0 1-2.519-3.477 26.865 26.865 0 0 1-2.386-4.405 31.328 31.328 0 0 1-1.558-4.073c-1.392-4.438-2.055-6.79-2.055-6.79l-1.027-.331-1.691 17.122c.075.043.397.322.915.772l.001.001.001.001c1.092.948 3.055 2.652 5.414 4.492.298.232 8.915 6.326 12.793 8.247a44.41 44.41 0 0 0 7.557 3.014c7.258 2.219 15.212 2.682 22.007.463 9.147-3.014 16.837-6.027 21.278-14.936zm-80.14-78.028c-3.082 0-5.965 2.517-8.153 5.432-2.154 2.914-4.076 6.789-4.076 10.929 0-4.107-1.89-7.982-4.077-10.93-2.188-2.88-5.071-5.43-8.153-5.43 1.524 0 3.049-.663 4.408-1.657 1.359-.993 2.651-2.384 3.745-3.842 2.187-2.914 4.077-6.789 4.077-10.896 0 4.107 1.889 7.982 4.076 10.896 1.094 1.458 2.353 2.849 3.745 3.842 1.392.994 2.884 1.656 4.408 1.656zM13.224 98.828v26.098c0 1.887.033 3.577.1 5.1.066 1.523.265 2.782.53 3.809.298 1.026.729 1.788 1.293 2.318.563.53 1.358.828 2.386.828 1.524 0 2.95-.729 4.275-2.153 1.326-1.457 2.188-3.179 2.552-5.199h.962v7.915c-.663 0-1.194.232-1.625.662-.563.497-1.392 1.06-2.452 1.623s-2.619.861-4.707.861c-2.618 0-4.64-.497-6.065-1.523-1.458-1.027-2.485-2.352-3.148-4.008-.663-1.656-1.028-3.51-1.127-5.53-.1-2.021-.166-4.074-.166-6.161V98.861H0v-3.676h6.065v-9.638c0-1.225-.166-2.35-.497-3.41-.331-1.06-1.392-1.624-3.215-1.69v-1.093l10.838-3.477v19.275h12.13v3.676H13.225zm63.868 34.742c0 .596.066 1.225.232 1.887.133.696.365 1.325.696 1.888a7.833 7.833 0 0 0 1.094 1.524c.397.43.895.662 1.458.662v1.093H66.586v-1.093c.497 0 .96-.232 1.425-.662.43-.431.828-.928 1.127-1.524a6.145 6.145 0 0 0 .696-1.888c.132-.695.232-1.324.232-1.887V113.4c0-2.616-.365-4.868-1.094-6.822-.73-1.954-1.69-3.577-2.917-4.869-1.226-1.291-2.618-2.252-4.176-2.88-1.557-.597-3.115-.928-4.706-.928a12.41 12.41 0 0 0-4.706.927c-1.558.63-2.917 1.457-4.11 2.55-1.193 1.093-2.154 2.418-2.917 3.941-.762 1.557-1.127 3.279-1.127 5.134v23.084c0 .596.067 1.225.232 1.887.133.696.365 1.325.696 1.888a7.833 7.833 0 0 0 1.094 1.524c.398.43.895.662 1.458.662v1.093H33.707v-1.093c.498 0 .962-.232 1.426-.662.43-.431.828-.928 1.127-1.524a6.145 6.145 0 0 0 .696-1.888c.132-.695.231-1.324.231-1.887V78.162c0-1.225-.165-2.385-.53-3.477-.364-1.093-1.425-1.656-3.148-1.723V71.87l10.837-3.344v31.33a18.066 18.066 0 0 1 1.956-1.888c.795-.695 1.757-1.325 2.883-1.954 1.127-.63 2.42-1.126 3.911-1.523 1.492-.398 3.248-.597 5.27-.597 3.38 0 6.297.564 8.684 1.723 2.386 1.159 4.341 2.65 5.866 4.504a18.119 18.119 0 0 1 3.314 6.06c.696 2.219 1.028 4.339 1.028 6.459v20.898l-.166.033zm21.94-7.618c-.96-2.285-1.557-4.703-1.856-7.22v-.033h37.618c0-3.51-.431-6.789-1.293-9.737-.861-2.947-2.187-5.53-3.944-7.683-1.789-2.186-4.01-3.875-6.728-5.1-2.718-1.226-5.866-1.855-9.479-1.855-4.043 0-7.523.695-10.407 2.053-2.883 1.358-5.236 3.147-7.092 5.366a22.296 22.296 0 0 0-4.11 7.418c-.895 2.749-1.359 5.432-1.359 8.114 0 4.173.696 7.783 2.022 10.83 1.325 3.047 3.115 5.531 5.369 7.485a21.812 21.812 0 0 0 7.755 4.338c2.95.961 6.033 1.425 9.281 1.425 4.043 0 7.291-.497 9.744-1.458 2.452-.96 4.408-1.887 5.866-2.749.729-.43 1.359-.794 1.889-1.092.53-.299 1.028-.431 1.458-.431v-8.114h-.961c-.431 1.59-1.259 3.014-2.452 4.272a16.612 16.612 0 0 1-4.077 3.213c-1.524.894-3.182 1.556-4.938 2.02-1.757.464-3.447.695-5.038.695-2.983 0-5.568-.496-7.822-1.556-2.254-1.06-4.143-2.451-5.7-4.173a20.743 20.743 0 0 1-3.746-6.028zm7.292-26.495c1.856-1.026 4.043-1.523 6.562-1.523l-.033.033c2.453 0 4.607.497 6.496 1.457 1.889.961 3.447 2.252 4.673 3.842 1.227 1.59 2.188 3.411 2.884 5.431.663 2.021 1.06 4.074 1.127 6.161h-30.89a26.777 26.777 0 0 1 1.425-6.061 18.553 18.553 0 0 1 3.05-5.432c1.292-1.589 2.85-2.881 4.706-3.908z" fill="url(#ha)"/><defs><linearGradient id="ha" x1="-73.079" y1="53.216" x2="50.71" y2="447.389" gradientUnits="userSpaceOnUse"><stop stop-color="#E3B373"/><stop offset=".33" stop-color="#FEE0B7"/><stop offset=".552" stop-color="#FEE5C5"/><stop offset=".781" stop-color="#DEA760"/><stop offset="1" stop-color="#C3843E"/></linearGradient></defs></svg><svg viewBox="0 0 65 38" id="vk" xmlns="http://www.w3.org/2000/svg"><path d="M64.637 33.521c-.104-.151-.156-.303-.208-.403-1.142-1.967-3.27-4.387-6.438-7.26l-.052-.051-.052-.05-.051-.051h-.053c-1.453-1.361-2.336-2.219-2.751-2.672-.675-.857-.883-1.765-.467-2.673.26-.655 1.298-2.117 3.063-4.285.934-1.16 1.661-2.068 2.18-2.774 3.894-5.041 5.607-8.268 5.088-9.68l-.207-.303c-.156-.201-.468-.403-1.039-.554-.57-.152-1.298-.202-2.18-.101l-9.709.05c-.156-.05-.363-.05-.675 0-.311.05-.467.101-.467.101l-.156.101-.156.1c-.103.051-.26.202-.363.354-.156.151-.26.353-.311.554-1.039 2.673-2.285 5.093-3.635 7.412-.83 1.361-1.609 2.521-2.284 3.53a17.388 17.388 0 0 1-1.765 2.218c-.467.454-.883.857-1.298 1.11-.364.302-.675.403-.883.352-.207-.05-.415-.1-.57-.151a2.364 2.364 0 0 1-.78-.807c-.207-.353-.311-.756-.415-1.26-.052-.505-.104-.958-.104-1.311v-1.563c0-.656.052-1.16.052-1.362 0-.857 0-1.714.052-2.722.052-.958.052-1.765.104-2.32 0-.554.052-1.16.052-1.815s-.052-1.109-.104-1.512c-.052-.353-.208-.706-.363-1.06-.156-.352-.416-.604-.675-.806a3.343 3.343 0 0 0-1.142-.454C34.68 1.151 33.175 1 31.305 1c-4.256-.05-6.904.202-8.15.807a4.742 4.742 0 0 0-1.298 1.008c-.415.504-.467.756-.156.807 1.35.202 2.337.655 2.856 1.412l.207.403c.156.302.312.807.468 1.513.155.705.26 1.512.311 2.42.104 1.613.104 2.975 0 4.084a40.475 40.475 0 0 1-.311 2.672c-.104.655-.26 1.16-.468 1.563-.207.403-.363.655-.415.706-.052.1-.104.151-.156.151a3.012 3.012 0 0 1-.934.152c-.312 0-.675-.152-1.142-.454a6.326 6.326 0 0 1-1.402-1.26 18.252 18.252 0 0 1-1.662-2.27c-.623-.958-1.245-2.117-1.869-3.428l-.519-.958c-.363-.605-.778-1.513-1.401-2.673a88.413 88.413 0 0 1-1.558-3.378 2.151 2.151 0 0 0-.83-1.059l-.156-.1c-.104-.101-.312-.202-.52-.303-.26-.1-.519-.151-.778-.202l-9.241.05c-.935 0-1.61.203-1.921.606l-.156.202c-.052.1-.104.302-.104.504 0 .252.052.554.208.907 1.35 3.076 2.803 6.05 4.413 8.925C6.23 16.68 7.58 19 8.774 20.765a83.879 83.879 0 0 0 3.582 4.94c1.194 1.564 2.025 2.572 2.44 2.976.416.453.727.756.935 1.008l.83.807c.52.504 1.35 1.16 2.389 1.865 1.038.757 2.232 1.463 3.478 2.168a19.877 19.877 0 0 0 4.465 1.765c1.713.454 3.323.656 4.932.555h3.894c.779-.05 1.402-.303 1.817-.706l.156-.151c.103-.152.155-.353.26-.605.103-.252.103-.555.103-.908 0-.958.052-1.815.208-2.571.156-.757.363-1.311.57-1.715a3.67 3.67 0 0 1 .728-.958c.26-.252.467-.403.57-.453.105-.05.209-.101.26-.101.52-.152 1.195 0 1.921.504.727.504 1.402 1.16 2.077 1.916a42.147 42.147 0 0 0 2.336 2.571c.883.958 1.713 1.664 2.388 2.118l.675.403a8.378 8.378 0 0 0 1.766.706c.726.202 1.35.252 1.868.151l8.67-.15c.831 0 1.506-.152 1.974-.404.467-.252.778-.555.83-.908.104-.353.104-.706 0-1.109-.104-.504-.156-.807-.26-.958z"/></svg></svg>