<svg width="51" height="51" viewBox="0 0 51 51" xmlns="http://www.w3.org/2000/svg">
<path d="M36.4886 51H14.5114C6.52852 51 0 44.5038 0 36.4886V14.5114C0 6.52852 6.52852 0 14.5114 0H36.4886C44.5038 0 51 6.52852 51 14.5114V36.4886C51 44.5038 44.5038 51 36.4886 51ZM14.5114 4.36312C8.92015 4.36312 4.36312 8.92015 4.36312 14.5114V36.4886C4.36312 42.0798 8.92015 46.6369 14.5114 46.6369H36.4886C42.0798 46.6369 46.6369 42.0798 46.6369 36.4886V14.5114C46.6369 8.92015 42.0798 4.36312 36.4886 4.36312H14.5114Z"/>
<path d="M25.4999 38.557C18.2927 38.557 12.4429 32.7072 12.4429 25.5C12.4429 18.2928 18.2927 12.443 25.4999 12.443C32.7071 12.443 38.5569 18.2928 38.5569 25.5C38.5569 32.7072 32.7071 38.557 25.4999 38.557ZM25.4999 16.8061C20.7166 16.8061 16.806 20.7167 16.806 25.5C16.806 30.2833 20.7166 34.1939 25.4999 34.1939C30.2832 34.1939 34.1938 30.2833 34.1938 25.5C34.1938 20.7167 30.2832 16.8061 25.4999 16.8061Z"/>
<path d="M42.2739 11.6996C42.2739 13.4449 40.8841 14.8346 39.1389 14.8346C37.3936 14.8346 36.0039 13.4449 36.0039 11.6996C36.0039 9.95438 37.3936 8.56464 39.1389 8.56464C40.8518 8.56464 42.2739 9.95438 42.2739 11.6996Z"/>
</svg>
