<svg width="331" height="95" viewBox="0 0 331 95" fill="none" xmlns="http://www.w3.org/2000/svg">
<path fill-rule="evenodd" clip-rule="evenodd" d="M259.446 14.1608L259.091 14.8169C254.823 12.9716 250.418 11.55 245.973 10.4019C243.743 9.81411 241.5 9.33571 239.229 8.92565C238.369 8.75792 237.492 8.62234 236.625 8.4881C236.361 8.44731 236.098 8.40664 235.837 8.36523C235.562 8.32887 235.288 8.29172 235.013 8.25453C234.151 8.13795 233.288 8.02111 232.417 7.92784C230.133 7.66813 227.848 7.49044 225.564 7.35375C223.279 7.2034 220.995 7.09405 218.711 7.0257C214.142 6.87535 209.56 6.88902 204.991 7.18973C200.422 7.50411 195.881 8.06452 191.367 8.88464C190.449 9.03926 189.541 9.22957 188.634 9.41953L188.634 9.41957C188.419 9.4647 188.203 9.5098 187.988 9.55441L186.251 9.89613C185.663 10.0191 185.088 10.1285 184.5 10.2242L182.749 10.5249L180.985 10.7709C180.396 10.8529 179.808 10.9212 179.22 10.9896L179.22 10.9896C178.632 11.058 178.044 11.1263 177.442 11.1673C175.075 11.3997 172.695 11.5227 170.301 11.4817H170L169.932 45.7354C169.932 51.5173 172.203 53.8683 175.39 53.8683C177.907 53.8683 180 52.4467 182.612 48.5922C182.859 48.2504 183.857 49.0022 183.707 49.3439C180.178 54.8798 176.963 58.2422 172.627 57.8185C167.183 57.2854 163.968 54.538 163.968 46.1591V15.1449L163.954 11.0853C163.729 11.0615 163.503 11.0275 163.268 10.9921L163.161 10.976C160.795 10.6206 158.456 10.1148 156.199 9.33571C155.063 8.93932 153.955 8.50192 152.888 7.95517C152.355 7.6818 151.835 7.39476 151.329 7.08038C150.823 6.766 150.33 6.43795 149.852 6.01422L150.33 5.44014C150.768 5.72718 151.288 6.00055 151.794 6.24659C152.314 6.47896 152.834 6.69765 153.367 6.88902C154.434 7.28541 155.528 7.59979 156.636 7.85949C157.744 8.1192 158.866 8.31056 160.001 8.47458C161.123 8.62494 162.272 8.73429 163.407 8.78896C163.503 8.78896 163.599 8.7958 163.695 8.80263C163.79 8.80946 163.886 8.8163 163.982 8.8163C166.813 5.6315 167.579 4.37398 169.262 0H170.041V8.74796C172.381 8.61127 174.72 8.32423 177.045 7.96884C179.302 7.61346 181.545 7.17606 183.775 6.64298C184.336 6.51996 184.897 6.38327 185.444 6.24659L187.113 5.83653C187.48 5.74906 187.848 5.65879 188.216 5.5684L188.217 5.56818C188.999 5.37617 189.783 5.18365 190.573 5.01641C192.885 4.497 195.224 4.0596 197.563 3.69054C199.916 3.33516 202.269 3.04812 204.635 2.81575C207.002 2.61072 209.368 2.43303 211.748 2.36468C214.128 2.28267 216.508 2.269 218.875 2.36468C220.065 2.40569 221.255 2.4877 222.431 2.58338C222.774 2.61924 223.118 2.65278 223.463 2.68637C224.3 2.76799 225.141 2.8499 225.974 2.9661C227.151 3.11646 228.327 3.29415 229.503 3.48551C229.818 3.54478 230.134 3.60304 230.451 3.66138L230.451 3.66145C231.303 3.81839 232.158 3.97594 233.005 4.15528C233.93 4.34011 234.855 4.55088 235.773 4.76008L235.773 4.76021L235.775 4.7607C236.011 4.8143 236.245 4.8678 236.48 4.92073L236.709 4.97808C237.783 5.24618 238.867 5.51665 239.927 5.82286C242.211 6.46529 244.468 7.16239 246.698 7.96884C251.143 9.58175 255.466 11.591 259.419 14.1471L259.446 14.1608ZM105.108 0.0136719C102.273 2.2934 100.944 2.50966 99.1342 2.80398L99.0619 2.81575L100.266 5.82286L79.0498 57.8322H81.9634L88.8028 41.4434H88.9943H114.683L121.399 57.8459H127.459L105.108 0.0136719ZM90.0886 38.614L101.852 9.63642L113.616 38.614H90.0886ZM152.492 16.3067C149.061 16.3067 147.757 17.6756 145.003 20.5667C144.364 21.2375 143.647 21.9901 142.807 22.8267L140.659 24.9727C140.659 24.9727 140.632 16.4844 140.577 16.3887C139.155 17.2362 136.788 17.8513 134.6 18.2887V57.8322H140.659V26.7359L146.336 21.1318C147.102 20.3663 147.868 20.0519 148.634 20.0519C150.221 20.0519 151.728 21.5447 153.17 22.9718L153.244 23.0454C153.278 23.0796 153.316 23.1137 153.353 23.1479C153.379 23.1715 153.405 23.1952 153.43 23.2188C153.441 23.2294 153.452 23.2399 153.463 23.2504L156.8 17.4686C155.515 16.7305 153.791 16.2931 152.478 16.2931L152.492 16.3067ZM277.824 20.5667C280.578 17.6755 281.882 16.3067 285.313 16.3067L285.272 16.2931C286.599 16.2931 288.322 16.7305 289.608 17.4686L286.27 23.2504C286.257 23.2374 286.244 23.2244 286.23 23.2114C286.207 23.1903 286.184 23.1691 286.161 23.1479C286.123 23.1137 286.086 23.0796 286.051 23.0454L285.977 22.9718C284.536 21.5447 283.028 20.0519 281.442 20.0519C280.676 20.0519 279.91 20.3663 279.144 21.1318L273.467 26.7359V57.8322H267.421V18.2887C269.609 17.8513 271.976 17.2362 273.399 16.3887C273.453 16.4844 273.481 24.9727 273.481 24.9727L275.628 22.8267C276.468 21.9901 277.185 21.2374 277.824 20.5667ZM248.94 57.8322C253.29 58.2149 256.491 55.1394 260.02 50.0684C260.184 49.7677 259.186 49.0706 258.926 49.3849C256.327 52.9115 254.234 54.2236 251.717 54.2236C248.53 54.2236 246.259 52.0777 246.259 46.7742V18.7398H255.192L255.903 16.4297H246.341V12.4932L246.268 12.4705C245.08 12.1016 243.341 11.5618 240.46 11.468V16.4297H232.061L231.65 18.7398H240.282V47.1569C240.282 54.8387 243.496 57.3401 248.94 57.8322ZM246.424 0.205026V5.8912C245.264 5.35832 244.38 5.12979 243.322 4.85615C243.131 4.80691 242.935 4.75622 242.73 4.70202C243.25 3.90924 244.878 1.01148 245.152 0.205026C245.152 0.205026 245.152 0.191357 245.179 0.177689H246.41V0.205026H246.424ZM191.011 57.1351H197.057C197.057 52.8704 197.043 27.7884 197.029 27.7474C195.593 28.5949 193.199 29.2236 191.011 29.6474V57.1351ZM327.087 16.3887L315.802 43.9995L304.271 16.3887H296.447L311.959 53.0208L307.732 63.2176C307.663 63.3773 307.592 63.5403 307.52 63.7061L307.519 63.7103C305.596 68.1571 302.79 74.6447 297.596 74.6447C295.147 74.6447 294.135 72.362 293.93 69.9836H287.433C287.583 70.5714 287.829 71.1181 288.144 71.6649C289.225 73.4965 291.523 75.7928 296.666 75.7928C302.274 75.7928 307.582 71.6649 311.644 62.0285L331 16.3887H327.087ZM232.033 52.4057C233.018 50.4101 233.935 47.2253 232.731 44.3412L232.758 44.3549C230.757 39.5935 224.615 36.8319 223.923 36.5207C223.896 36.5084 223.877 36.5 223.867 36.4954C222.321 35.7709 219.476 34.7184 215.318 33.3242C215.222 33.2969 215.126 33.2696 215.044 33.2285C212.664 32.2717 211.091 31.2329 210.339 30.1258C209.559 29.0049 209.176 27.6791 209.176 26.1755C209.176 23.8928 209.997 21.9519 211.652 20.339C213.307 18.7261 215.537 17.9196 218.354 17.9196C220.037 17.9196 221.528 18.2067 222.868 18.7944C224.209 19.3822 225.385 20.216 226.425 21.2958C227.451 22.3756 227.971 22.936 227.971 22.936L228.313 22.8814L226.356 17.7419C226.274 17.7419 226.206 17.7283 226.124 17.6873C225.946 17.5916 225.057 17.3865 223.443 17.0722C221.842 16.7578 220.352 16.5938 218.97 16.5938C215.413 16.5938 212.541 17.6736 210.352 19.8332C208.15 21.9929 207.056 24.6583 207.056 27.8431C207.056 29.579 207.48 31.2876 208.341 32.9415C209.19 34.6091 210.257 35.8529 211.542 36.6867C212.814 37.5205 215.03 38.491 218.177 39.5982C221.336 40.678 223.498 41.6074 224.633 42.3592C225.768 43.111 226.657 43.9858 227.287 44.9836C227.93 45.9814 228.244 47.1979 228.244 48.6058C228.244 50.9295 227.328 52.9251 225.508 54.579C223.689 56.2329 221.022 57.0667 217.52 57.0667C216.562 57.0667 213.909 56.6567 212.514 55.9732C210.571 55.0164 208.998 53.8136 207.794 52.3647C207.411 51.9 207.069 51.4352 206.755 50.9295C206.372 50.3554 206.043 49.754 205.77 49.1116C205.524 48.5785 205.305 48.0181 205.127 47.4303C204.552 45.5987 204.279 44.6282 204.279 44.6282L203.855 44.4915L203.157 51.5582C203.188 51.5758 203.32 51.6908 203.534 51.876L203.535 51.8768L203.535 51.8773C203.986 52.2686 204.796 52.9718 205.77 53.7316C205.893 53.8272 209.449 56.3423 211.05 57.1351C212.103 57.6681 213.143 58.0782 214.169 58.3789C217.164 59.2947 220.447 59.4861 223.251 58.5703C227.027 57.3264 230.2 56.0826 232.033 52.4057ZM198.958 20.2023C197.686 20.2023 196.496 21.2411 195.593 22.444C194.704 23.6468 193.911 25.246 193.911 26.9546C193.911 25.2597 193.131 23.6605 192.228 22.444C191.325 21.2548 190.135 20.2023 188.863 20.2023C189.493 20.2023 190.122 19.9289 190.683 19.5189C191.243 19.1088 191.777 18.5347 192.228 17.9333C193.131 16.7305 193.911 15.1312 193.911 13.4363C193.911 15.1312 194.69 16.7305 195.593 17.9333C196.045 18.5347 196.564 19.1088 197.139 19.5189C197.713 19.9289 198.329 20.2023 198.958 20.2023ZM5.45785 40.5823V51.3532C5.45785 52.1323 5.47153 52.8294 5.49888 53.4582C5.52624 54.0869 5.60831 54.6063 5.71775 55.0301C5.84086 55.4538 6.01868 55.7682 6.25122 55.9869C6.48376 56.2056 6.81205 56.3286 7.23609 56.3286C7.86532 56.3286 8.45351 56.0279 9.00066 55.4401C9.54781 54.8387 9.90346 54.1279 10.0539 53.2941H10.4506V56.5609C10.177 56.5609 9.95818 56.6566 9.78035 56.8343C9.54782 57.0393 9.20584 57.2717 8.76812 57.5041C8.3304 57.7365 7.6875 57.8595 6.82573 57.8595C5.7451 57.8595 4.9107 57.6544 4.32251 57.2307C3.72064 56.807 3.2966 56.2602 3.02302 55.5768C2.74944 54.8934 2.59898 54.1279 2.55794 53.2941C2.5169 52.4603 2.48954 51.6129 2.48954 50.7518V40.5959H0V39.0787H2.50322V35.1011C2.50322 34.5954 2.43483 34.1306 2.29804 33.6932C2.16125 33.2558 1.72353 33.0235 0.971196 32.9961V32.5451L5.44417 31.1099V39.065H10.4506V40.5823H5.45785ZM31.817 54.9207C31.817 55.1668 31.8444 55.4265 31.9128 55.6998C31.9675 55.9869 32.0632 56.2466 32.2 56.479C32.3368 56.725 32.4873 56.93 32.6514 57.1077C32.8156 57.2854 33.0208 57.3811 33.2533 57.3811V57.8322H27.4808V57.3811C27.686 57.3811 27.8775 57.2854 28.069 57.1077C28.2468 56.93 28.411 56.725 28.5341 56.479C28.6709 56.2466 28.7666 55.9732 28.8214 55.6998C28.8761 55.4128 28.9171 55.1531 28.9171 54.9207V46.5965C28.9171 45.5167 28.7666 44.5872 28.4657 43.7808C28.1648 42.9743 27.7681 42.3045 27.262 41.7715C26.7559 41.2384 26.1813 40.842 25.5384 40.5823C24.8955 40.3362 24.2526 40.1996 23.5961 40.1996C22.9395 40.1996 22.2966 40.3226 21.6537 40.5823C21.0108 40.842 20.4499 41.1837 19.9575 41.6348C19.465 42.0858 19.0684 42.6326 18.7537 43.2613C18.4391 43.9038 18.2887 44.6145 18.2887 45.38V54.9071C18.2887 55.1531 18.316 55.4128 18.3844 55.6862C18.4391 55.9732 18.5349 56.2329 18.6717 56.4653C18.8085 56.7113 18.9589 56.9164 19.1231 57.094C19.2872 57.2717 19.4924 57.3674 19.7249 57.3674V57.8185H13.9114V57.3674C14.1166 57.3674 14.3081 57.2717 14.4996 57.094C14.6775 56.9164 14.8416 56.7113 14.9647 56.4653C15.1015 56.2329 15.1973 55.9595 15.252 55.6862C15.3067 55.3991 15.3477 55.1394 15.3477 54.9071V32.053C15.3477 31.5473 15.2793 31.0689 15.1289 30.6178C14.9784 30.1667 14.5407 29.9344 13.8294 29.907V29.456L18.3023 28.0754V41.006C18.5075 40.7736 18.7811 40.5003 19.1094 40.2269C19.4377 39.9399 19.8344 39.6801 20.2995 39.4204C20.7645 39.1607 21.298 38.9557 21.9136 38.7917C22.5291 38.6277 23.2541 38.5456 24.0885 38.5456C25.4837 38.5456 26.6875 38.778 27.6723 39.2564C28.6572 39.7348 29.4643 40.3499 30.0935 41.1154C30.7227 41.8808 31.1741 42.7146 31.4614 43.6167C31.7486 44.5325 31.8854 45.4073 31.8854 46.2821V54.9071L31.817 54.9207ZM40.8722 51.777C40.4755 50.8338 40.2293 49.836 40.1062 48.7972V48.7835H55.6317C55.6317 47.3347 55.4538 45.9815 55.0982 44.7649C54.7425 43.5484 54.1954 42.4823 53.4704 41.5938C52.7318 40.6917 51.8153 39.9946 50.6936 39.4888C49.5719 38.9831 48.2725 38.7234 46.7815 38.7234C45.1127 38.7234 43.6764 39.0104 42.4863 39.5708C41.2963 40.1313 40.3251 40.8694 39.5591 41.7852C38.8067 42.6873 38.2322 43.7125 37.8629 44.847C37.4935 45.9815 37.302 47.0886 37.302 48.1958C37.302 49.918 37.5893 51.4079 38.1365 52.6654C38.6836 53.923 39.4223 54.9481 40.3524 55.7546C41.2826 56.561 42.3495 57.1624 43.5533 57.5452C44.7707 57.9416 46.0428 58.1329 47.3833 58.1329C49.0522 58.1329 50.3927 57.9279 51.4049 57.5315C52.4171 57.1351 53.2242 56.7524 53.8261 56.397C54.127 56.2193 54.3869 56.0689 54.6057 55.9459C54.8246 55.8229 55.0298 55.7682 55.2076 55.7682V52.4194H54.8109C54.6331 53.0755 54.2911 53.6633 53.7987 54.1827C53.3063 54.7157 52.7454 55.1531 52.1162 55.5085C51.487 55.8776 50.803 56.151 50.0781 56.3423C49.3531 56.5337 48.6555 56.6294 47.9989 56.6294C46.7678 56.6294 45.7008 56.4243 44.7707 55.9869C43.8405 55.5495 43.0608 54.9754 42.4179 54.2647C41.775 53.5402 41.2552 52.7201 40.8722 51.777ZM43.8816 40.842C44.6476 40.4183 45.5504 40.2133 46.59 40.2133L46.5763 40.2269C47.5885 40.2269 48.4776 40.432 49.2573 40.8284C50.037 41.2248 50.6799 41.7578 51.186 42.4139C51.6922 43.07 52.0888 43.8218 52.3761 44.6556C52.6497 45.4894 52.8138 46.3368 52.8412 47.198H40.0925C40.1883 46.3642 40.3798 45.5304 40.6807 44.6966C40.9816 43.8628 41.4057 43.111 41.9392 42.4549C42.4726 41.7988 43.1155 41.2658 43.8816 40.842Z" fill="#FFF"/>
<path d="M72.8806 90.4183H71.0614L69.9397 85.0192L66.8072 91.0471L63.7295 85.0329L62.6215 90.4183H60.8022L63.2234 80.4128L66.8072 87.7939L70.4458 80.4128L72.8806 90.4183Z" fill="#FFF"/>
<path d="M81.9911 82.2171C81.6902 81.7934 81.2662 81.479 80.7464 81.2603C80.2129 81.0416 79.5837 80.9323 78.8724 80.9323C78.038 80.9323 77.3267 81.0553 76.7248 81.315C76.1366 81.5747 75.6578 81.8344 75.3022 82.0804L76.0956 83.3106C76.246 83.2012 76.4512 83.0782 76.7111 82.9142C76.971 82.7639 77.2856 82.6272 77.6549 82.5041C78.0106 82.3948 78.421 82.3265 78.8724 82.3265C79.3785 82.3265 79.8436 82.4495 80.2402 82.6818C80.6369 82.9142 80.8284 83.2696 80.8284 83.748V85.2926C80.5959 85.1422 80.295 84.9919 79.953 84.8688C79.5289 84.7185 79.0228 84.6365 78.421 84.6365C77.6139 84.6365 76.9163 84.7595 76.3144 85.0055C75.7262 85.2516 75.2612 85.6069 74.9465 86.0717C74.6182 86.5227 74.4541 87.0832 74.4541 87.7393C74.4541 88.3954 74.6046 88.9011 74.8918 89.3248C75.1791 89.7485 75.5621 90.0766 76.0545 90.2816C76.547 90.5003 77.0804 90.6097 77.6549 90.6097C78.2978 90.6097 78.886 90.5003 79.4058 90.2816C79.9256 90.0629 80.3497 89.7349 80.6643 89.3112C80.719 89.2428 80.7737 89.1608 80.8148 89.0788V90.4046H82.4288V83.7343C82.4288 83.1329 82.2784 82.6135 81.9775 82.2034L81.9911 82.2171ZM80.4728 88.1767C80.2402 88.532 79.912 88.7781 79.4879 88.9421C79.0639 89.1061 78.5851 89.1881 78.0516 89.1881C77.6823 89.1881 77.354 89.1335 77.0668 89.0104C76.7658 88.9011 76.5333 88.7234 76.3555 88.5047C76.1776 88.286 76.0956 88.0126 76.0956 87.6846C76.0956 87.3019 76.1776 86.9875 76.3555 86.7141C76.5333 86.4407 76.7932 86.2357 77.1488 86.0853C77.5045 85.935 77.9559 85.8666 78.4894 85.8666C79.0775 85.8666 79.611 85.9487 80.0898 86.099C80.336 86.181 80.5685 86.2767 80.8148 86.4134V86.7824C80.8148 87.3565 80.7053 87.8213 80.4591 88.1767H80.4728Z" fill="#FFF"/>
<path d="M92.496 81.2056V90.5003H90.8682V86.3587H85.7113V90.5003H84.0972V81.2056H85.7113V84.8414H90.8682V81.2056H92.496Z" fill="#FFF"/>
<path d="M101.907 80.4128V90.4183H100.293V84.3904L94.124 91.1291V81.1236H95.7381V87.1515L101.907 80.4128Z" fill="#FFF"/>
<path d="M111.045 90.4184H109.02L105.177 85.7027V90.4184H103.562V81.1237H105.177V84.3905L108.61 81.1237H110.634L106.586 84.9646L111.045 90.4184Z" fill="#FFF"/>
<path d="M124.956 83.2696C124.532 82.5452 123.957 81.9711 123.232 81.561C122.507 81.1373 121.687 80.9323 120.77 80.9323C119.854 80.9323 119.06 81.1373 118.322 81.561C117.597 81.9711 117.022 82.5452 116.598 83.2696C116.338 83.7207 116.147 84.2264 116.051 84.7595H114.341V81.1236H112.727V90.4183H114.341V86.2767H115.983C116.051 87.0011 116.242 87.6709 116.598 88.2723C117.022 89.0104 117.597 89.5845 118.322 89.9946C119.047 90.4183 119.867 90.6233 120.77 90.6233C121.673 90.6233 122.507 90.4183 123.232 89.9946C123.957 89.5845 124.532 88.9968 124.956 88.2723C125.38 87.5479 125.585 86.7141 125.585 85.771C125.585 84.8278 125.38 83.994 124.956 83.2559V83.2696ZM123.533 87.4932C123.26 87.9853 122.877 88.3817 122.398 88.6687C121.919 88.9558 121.372 89.1061 120.77 89.1061C120.168 89.1061 119.621 88.9694 119.142 88.6687C118.664 88.3817 118.281 87.9853 118.007 87.4932C117.733 86.9875 117.597 86.4271 117.597 85.771C117.597 85.1149 117.733 84.5544 118.007 84.0487C118.281 83.543 118.664 83.1466 119.142 82.8732C119.621 82.5862 120.155 82.4495 120.77 82.4495C121.386 82.4495 121.919 82.5862 122.398 82.8732C122.877 83.1602 123.26 83.543 123.533 84.0487C123.807 84.5544 123.944 85.1285 123.944 85.771C123.944 86.4134 123.807 86.9875 123.533 87.4932Z" fill="#FFF"/>
<path d="M135.995 83.1739C135.571 82.4495 135.024 81.9027 134.326 81.5063C133.629 81.1099 132.863 80.9186 132.015 80.9186C131.249 80.9186 130.565 81.1099 129.976 81.5063C129.525 81.807 129.142 82.2171 128.841 82.7228V81.1236H127.227V94.8743H128.841V88.8054C129.142 89.3248 129.525 89.7349 129.976 90.0356C130.565 90.432 131.235 90.6233 132.015 90.6233C132.863 90.6233 133.629 90.432 134.326 90.0356C135.024 89.6529 135.571 89.0924 135.995 88.3543C136.406 87.6299 136.624 86.7688 136.624 85.771C136.624 84.7732 136.419 83.8984 135.995 83.1739ZM134.545 87.5889C134.258 88.081 133.875 88.4637 133.396 88.7234C132.917 88.9831 132.384 89.1061 131.809 89.1061C131.344 89.1061 130.879 88.9831 130.414 88.7234C129.963 88.4637 129.58 88.0946 129.279 87.5889C128.978 87.0968 128.841 86.4817 128.841 85.771C128.841 85.0602 128.992 84.4451 129.279 83.953C129.58 83.461 129.949 83.0782 130.414 82.8185C130.879 82.5588 131.344 82.4358 131.809 82.4358C132.384 82.4358 132.917 82.5588 133.396 82.8185C133.875 83.0782 134.258 83.4473 134.545 83.953C134.832 84.4451 134.983 85.0602 134.983 85.771C134.983 86.4817 134.832 87.0968 134.545 87.5889Z" fill="#FFF"/>
<path d="M155.542 90.4184H153.517L149.674 85.7027V90.4184H148.06V81.1237H149.674V84.3905L153.107 81.1237H155.132L151.083 84.9646L155.542 90.4184Z" fill="#FFF"/>
<path d="M164.803 82.2171C164.502 81.7934 164.078 81.479 163.544 81.2603C163.011 81.0416 162.381 80.9323 161.67 80.9323C160.836 80.9323 160.124 81.0553 159.523 81.315C158.934 81.5747 158.456 81.8344 158.114 82.0804L158.907 83.3106C159.058 83.2012 159.263 83.0782 159.523 82.9142C159.783 82.7639 160.097 82.6272 160.466 82.5041C160.836 82.3811 161.232 82.3265 161.684 82.3265C162.19 82.3265 162.655 82.4495 163.052 82.6818C163.448 82.9142 163.654 83.2696 163.654 83.748V85.2926C163.421 85.1285 163.12 84.9919 162.778 84.8688C162.354 84.7185 161.848 84.6365 161.246 84.6365C160.439 84.6365 159.741 84.7595 159.14 85.0055C158.551 85.2516 158.086 85.6069 157.772 86.0717C157.443 86.5227 157.293 87.0832 157.293 87.7393C157.293 88.3954 157.43 88.9011 157.731 89.3248C158.018 89.7485 158.401 90.0766 158.893 90.2816C159.372 90.5003 159.906 90.6097 160.494 90.6097C161.137 90.6097 161.725 90.5003 162.258 90.2816C162.778 90.0629 163.202 89.7349 163.517 89.3112C163.572 89.2291 163.626 89.1608 163.667 89.0788V90.4183H165.281V83.748C165.281 83.1466 165.131 82.6272 164.83 82.2171H164.803ZM163.284 88.1767C163.052 88.532 162.723 88.7781 162.299 88.9421C161.889 89.1061 161.41 89.1881 160.863 89.1881C160.494 89.1881 160.166 89.1335 159.865 89.0104C159.564 88.9011 159.331 88.7234 159.153 88.5047C158.975 88.286 158.893 88.0126 158.893 87.6846C158.893 87.3019 158.975 86.9875 159.153 86.7141C159.331 86.4407 159.591 86.2357 159.947 86.0853C160.302 85.935 160.754 85.8666 161.287 85.8666C161.875 85.8666 162.409 85.9487 162.888 86.099C163.134 86.181 163.38 86.2767 163.613 86.4134V86.7824C163.613 87.3565 163.489 87.8213 163.257 88.1767H163.284Z" fill="#FFF"/>
<path d="M174.378 90.4184H172.353L168.51 85.7027V90.4184H166.882V81.1237H168.51V84.3905L171.943 81.1237H173.967L169.919 84.9646L174.378 90.4184Z" fill="#FFF"/>
<path d="M193.597 80.4128V90.4183H191.969V84.3904L185.8 91.1291V81.1236H187.428V87.1515L193.597 80.4128Z" fill="#FFF"/>
<path d="M197.372 87.4932C197.646 87.999 198.029 88.3817 198.507 88.6824C198.986 88.9694 199.533 89.1198 200.135 89.1198C200.628 89.1198 201.106 89.0378 201.544 88.8874C201.982 88.7371 202.365 88.5184 202.693 88.2587C203.021 87.999 203.24 87.7119 203.377 87.4249V89.4478C203.049 89.8306 202.597 90.1176 201.996 90.3226C201.394 90.5277 200.778 90.637 200.149 90.637C199.246 90.637 198.425 90.432 197.7 90.0082C196.975 89.5845 196.401 89.0104 195.977 88.286C195.553 87.5479 195.334 86.7141 195.334 85.7846C195.334 84.8552 195.553 84.0077 195.977 83.2833C196.401 82.5588 196.975 81.9847 197.7 81.561C198.425 81.1373 199.246 80.9323 200.149 80.9323C200.778 80.9323 201.394 81.0416 201.996 81.2466C202.597 81.4517 203.063 81.7524 203.377 82.1214V84.1444C203.24 83.83 203.008 83.5566 202.693 83.2969C202.365 83.0372 201.982 82.8322 201.544 82.6818C201.106 82.5315 200.641 82.4495 200.135 82.4495C199.533 82.4495 198.986 82.5862 198.507 82.8732C198.029 83.1602 197.646 83.5566 197.372 84.0624C197.099 84.5681 196.962 85.1422 196.962 85.7846C196.962 86.4271 197.099 87.0011 197.372 87.5069V87.4932Z" fill="#FFF"/>
<path d="M212.501 90.4184H210.476L206.633 85.7027V90.4184H205.019V81.1237H206.633V84.3905L210.066 81.1237H212.091L208.055 84.9646L212.501 90.4184Z" fill="#FFF"/>
<path d="M223.047 81.1237L216.973 94.8744H215.154L217.698 89.1062L214.142 81.1237H216.07L218.669 87.5343L221.227 81.1237H223.047Z" fill="#FFF"/>
<path d="M226.672 87.4932C226.946 87.999 227.329 88.3817 227.807 88.6824C228.286 88.9694 228.833 89.1198 229.435 89.1198C229.927 89.1198 230.406 89.0378 230.844 88.8874C231.282 88.7371 231.665 88.5184 231.993 88.2587C232.321 87.999 232.54 87.7119 232.677 87.4249V89.4478C232.349 89.8306 231.897 90.1176 231.295 90.3226C230.693 90.5277 230.078 90.637 229.449 90.637C228.546 90.637 227.725 90.432 227 90.0082C226.275 89.5845 225.701 89.0104 225.277 88.286C224.853 87.5479 224.634 86.7141 224.634 85.7846C224.634 84.8552 224.853 84.0077 225.277 83.2833C225.701 82.5588 226.275 81.9847 227 81.561C227.725 81.1373 228.546 80.9323 229.449 80.9323C230.078 80.9323 230.693 81.0416 231.295 81.2466C231.897 81.4517 232.362 81.7524 232.677 82.1214V84.1444C232.54 83.83 232.308 83.5566 231.993 83.2969C231.665 83.0372 231.282 82.8322 230.844 82.6818C230.406 82.5315 229.941 82.4495 229.435 82.4495C228.833 82.4495 228.286 82.5862 227.807 82.8732C227.329 83.1602 226.946 83.5566 226.672 84.0624C226.398 84.5681 226.262 85.1422 226.262 85.7846C226.262 86.4271 226.398 87.0011 226.672 87.5069V87.4932Z" fill="#FFF"/>
<path d="M236.288 87.4932C236.562 87.999 236.945 88.3817 237.423 88.6824C237.902 88.9694 238.449 89.1198 239.051 89.1198C239.544 89.1198 240.022 89.0378 240.46 88.8874C240.898 88.7371 241.281 88.5184 241.609 88.2587C241.938 87.999 242.156 87.7119 242.293 87.4249V89.4478C241.965 89.8306 241.513 90.1176 240.912 90.3226C240.31 90.5277 239.694 90.637 239.065 90.637C238.162 90.637 237.341 90.432 236.616 90.0082C235.891 89.5845 235.317 89.0104 234.893 88.286C234.469 87.5479 234.25 86.7141 234.25 85.7846C234.25 84.8552 234.469 84.0077 234.893 83.2833C235.317 82.5588 235.891 81.9847 236.616 81.561C237.341 81.1373 238.162 80.9323 239.065 80.9323C239.694 80.9323 240.31 81.0416 240.912 81.2466C241.513 81.4517 241.979 81.7524 242.293 82.1214V84.1444C242.156 83.83 241.924 83.5566 241.609 83.2969C241.281 83.0372 240.898 82.8322 240.46 82.6818C240.022 82.5315 239.557 82.4495 239.051 82.4495C238.449 82.4495 237.902 82.5862 237.423 82.8732C236.945 83.1602 236.562 83.5566 236.288 84.0624C236.015 84.5681 235.878 85.1422 235.878 85.7846C235.878 86.4271 236.015 87.0011 236.288 87.5069V87.4932Z" fill="#FFF"/>
<path d="M249.42 81.1237V82.6409H247.491V90.4184H245.877V82.6409H243.948V81.1237H249.42Z" fill="#FFF"/>
<path d="M257.626 86.4818C257.325 86.1401 256.929 85.9077 256.409 85.771C256.313 85.7437 256.204 85.7163 256.094 85.7027C256.559 85.5386 256.929 85.2926 257.216 84.9509C257.517 84.6092 257.654 84.1718 257.654 83.6524C257.654 83.0509 257.503 82.5589 257.216 82.1898C256.915 81.8208 256.532 81.5474 256.053 81.3834C255.575 81.2193 255.041 81.1373 254.467 81.1373H251.02V90.432H255.068C256.135 90.432 256.901 90.186 257.367 89.6939C257.832 89.2019 258.064 88.6004 258.064 87.9033C258.064 87.3019 257.914 86.8235 257.613 86.4955L257.626 86.4818ZM252.647 82.5452H254.467C254.945 82.5452 255.342 82.6546 255.616 82.8733C255.889 83.092 256.04 83.3927 256.04 83.748C256.04 83.9257 255.999 84.0898 255.93 84.2401C255.862 84.3905 255.752 84.5408 255.616 84.6502C255.479 84.7732 255.315 84.8689 255.123 84.9236C254.932 84.9782 254.713 85.0192 254.467 85.0192H252.647V82.5315V82.5452ZM256.012 88.6278C255.725 88.8875 255.274 89.0105 254.672 89.0105H252.647V86.4271H254.672C254.986 86.4271 255.246 86.4544 255.465 86.5228C255.684 86.5775 255.876 86.6731 256.012 86.7962C256.149 86.9192 256.259 87.0559 256.341 87.1926C256.409 87.3429 256.45 87.5069 256.45 87.6983C256.45 88.0674 256.313 88.3681 256.012 88.6278Z" fill="#FFF"/>
<path d="M260.281 83.2696C260.705 82.5452 261.279 81.9711 262.004 81.5473C262.729 81.1236 263.55 80.9186 264.453 80.9186C265.355 80.9186 266.19 81.1236 266.915 81.5473C267.64 81.9711 268.214 82.5315 268.638 83.2696C269.062 84.0077 269.281 84.8278 269.281 85.771C269.281 86.7141 269.062 87.5342 268.638 88.2723C268.214 89.0104 267.64 89.5845 266.915 89.9946C266.19 90.4046 265.369 90.6233 264.453 90.6233C263.536 90.6233 262.729 90.4183 262.004 89.9946C261.279 89.5709 260.705 88.9968 260.281 88.2723C259.857 87.5342 259.638 86.7004 259.638 85.771C259.638 84.8415 259.857 83.994 260.281 83.2696ZM261.703 87.4932C261.977 87.999 262.36 88.3817 262.839 88.6824C263.317 88.9694 263.864 89.1198 264.466 89.1198C265.068 89.1198 265.615 88.9694 266.094 88.6824C266.573 88.3954 266.956 87.999 267.229 87.4932C267.503 87.0011 267.64 86.4271 267.64 85.771C267.64 85.1149 267.503 84.5544 267.229 84.0487C266.956 83.543 266.573 83.1466 266.094 82.8595C265.615 82.5725 265.068 82.4358 264.466 82.4358C263.864 82.4358 263.317 82.5725 262.839 82.8595C262.36 83.1466 261.977 83.543 261.703 84.0487C261.43 84.5544 261.293 85.1285 261.293 85.771C261.293 86.4134 261.43 86.9875 261.703 87.4932Z" fill="#FFF"/>
<defs>
<!-- <linearGradient id="paint0_linear_110_309" x1="-30.1612" y1="21.7572" x2="20.9291" y2="184.44" gradientUnits="userSpaceOnUse">
<stop stop-color="#E3B373"/>
<stop offset="0.33" stop-color="#FEE0B7"/>
<stop offset="0.552083" stop-color="#FEE5C5"/>
<stop offset="0.78125" stop-color="#DEA760"/>
<stop offset="1" stop-color="#C3843E"/>
</linearGradient> -->
</defs>
</svg>
