<svg width="65" height="38" viewBox="0 0 65 38" xmlns="http://www.w3.org/2000/svg">
<path d="M64.6366 33.521C64.5327 33.3697 64.4808 33.2185 64.4289 33.1176C63.2867 31.1513 61.1581 28.7311 57.9912 25.8571L57.9393 25.8067L57.8874 25.7563L57.8355 25.7059H57.7835C56.3299 24.3445 55.4473 23.4874 55.0319 23.0336C54.357 22.1765 54.1494 21.2689 54.5647 20.3613C54.8243 19.7059 55.8626 18.2437 57.6278 16.0756C58.5623 14.916 59.2891 14.0084 59.8083 13.3025C63.7021 8.26051 65.4153 5.03362 64.8962 3.62185L64.6885 3.31933C64.5327 3.11765 64.2212 2.91597 63.6502 2.76471C63.0791 2.61345 62.3522 2.56303 61.4697 2.66387L51.7612 2.71429C51.6054 2.66387 51.3978 2.66387 51.0863 2.71429C50.7748 2.76471 50.619 2.81513 50.619 2.81513L50.4633 2.91597L50.3075 3.01681C50.2037 3.06723 50.0479 3.21849 49.9441 3.36975C49.7883 3.52101 49.6845 3.72269 49.6326 3.92437C48.5942 6.59664 47.3482 9.01681 45.9984 11.3361C45.1677 12.6975 44.389 13.8571 43.7141 14.8655C43.0391 15.874 42.4161 16.5798 41.9489 17.084C41.4816 17.5378 41.0663 17.9412 40.651 18.1933C40.2875 18.4958 39.976 18.5966 39.7684 18.5462C39.5607 18.4958 39.353 18.4454 39.1973 18.395C38.8858 18.1933 38.6262 17.9412 38.4185 17.5882C38.2109 17.2353 38.107 16.8319 38.0032 16.3277C37.9513 15.8235 37.8994 15.3697 37.8994 15.0168C37.8994 14.6639 37.8994 14.1092 37.8994 13.4538C37.8994 12.7983 37.9513 12.2941 37.9513 12.0924C37.9513 11.2353 37.9513 10.3782 38.0032 9.36975C38.0551 8.41177 38.0551 7.60504 38.107 7.05042C38.107 6.4958 38.1589 5.89076 38.1589 5.2353C38.1589 4.57983 38.107 4.12605 38.0551 3.72269C38.0032 3.36975 37.8474 3.01681 37.6917 2.66387C37.5359 2.31093 37.2764 2.05883 37.0168 1.85715C36.7053 1.65546 36.3419 1.5042 35.8746 1.40336C34.6805 1.15126 33.1749 1 31.3059 1C27.0487 0.949582 24.401 1.20168 23.155 1.80672C22.6877 2.05883 22.2724 2.36135 21.857 2.81513C21.4417 3.31933 21.3898 3.57143 21.7013 3.62185C23.0511 3.82353 24.0375 4.27731 24.5567 5.03362L24.7644 5.43698C24.9201 5.7395 25.0759 6.2437 25.2316 6.94958C25.3874 7.65546 25.4912 8.46219 25.5431 9.36975C25.647 10.9832 25.647 12.3445 25.5431 13.4538C25.4393 14.6134 25.3355 15.4706 25.2316 16.1261C25.1278 16.7815 24.972 17.2857 24.7644 17.6891C24.5567 18.0924 24.401 18.3445 24.349 18.395C24.2971 18.4958 24.2452 18.5462 24.1933 18.5462C23.8818 18.6471 23.5703 18.6975 23.2588 18.6975C22.9473 18.6975 22.5839 18.5462 22.1166 18.2437C21.6494 17.9412 21.1821 17.5378 20.7149 16.9832C20.2476 16.4286 19.6765 15.7227 19.0535 14.7143C18.4305 13.7563 17.8075 12.5966 17.1845 11.2857L16.6653 10.3277C16.3019 9.72269 15.8866 8.81513 15.2636 7.65546C14.6925 6.4958 14.1733 5.33614 13.7061 4.27731C13.5503 3.82353 13.2388 3.47059 12.8754 3.21849L12.7196 3.11765C12.6158 3.01681 12.4081 2.91597 12.2005 2.81513C11.9409 2.71429 11.6813 2.66387 11.4217 2.61345L2.18051 2.66387C1.24601 2.66387 0.571086 2.86555 0.259585 3.26891L0.103834 3.47059C0.0519169 3.57143 0 3.77311 0 3.97479C0 4.22689 0.0519169 4.52941 0.207668 4.88235C1.55751 7.95798 3.01118 10.9328 4.62061 13.8067C6.23003 16.6807 7.57987 19 8.77396 20.7647C9.96805 22.5294 11.1621 24.1933 12.3562 25.7059C13.5503 27.2689 14.381 28.2773 14.7963 28.6807C15.2117 29.1345 15.5232 29.437 15.7308 29.6891L16.5615 30.4958C17.0807 31 17.9113 31.6555 18.9497 32.3613C19.988 33.1176 21.1821 33.8235 22.4281 34.5294C23.726 35.2353 25.1797 35.8403 26.893 36.2941C28.6062 36.7479 30.2157 36.9496 31.8251 36.8487H35.7189C36.4976 36.7983 37.1206 36.5462 37.5359 36.1429L37.6917 35.9916C37.7955 35.8403 37.8474 35.6387 37.9513 35.3866C38.0551 35.1345 38.0551 34.8319 38.0551 34.479C38.0551 33.521 38.107 32.6639 38.2628 31.9076C38.4185 31.1513 38.6262 30.5966 38.8339 30.1933C39.0415 29.7899 39.3011 29.4874 39.5607 29.2353C39.8203 28.9832 40.028 28.8319 40.1318 28.7815C40.2356 28.7311 40.3395 28.6807 40.3914 28.6807C40.9105 28.5294 41.5855 28.6807 42.3123 29.1849C43.0391 29.6891 43.7141 30.3445 44.389 31.1008C45.012 31.8571 45.7907 32.7143 46.7252 33.6723C47.6078 34.6303 48.4385 35.3361 49.1134 35.7899L49.7883 36.1933C50.2556 36.4454 50.8267 36.6975 51.5535 36.8992C52.2804 37.1008 52.9034 37.1513 53.4225 37.0504L62.0927 36.8992C62.9233 36.8992 63.5982 36.7479 64.0655 36.4958C64.5327 36.2437 64.8442 35.9412 64.8962 35.5882C65 35.2353 65 34.8824 64.8962 34.479C64.7923 33.9748 64.7404 33.6723 64.6366 33.521Z"/>
</svg>
