<svg width="802" height="185" fill="none" xmlns="http://www.w3.org/2000/svg"><path fill-rule="evenodd" clip-rule="evenodd" d="M628.629 34.81l-.862 1.59c-10.341-4.472-21.013-7.916-31.784-10.698-5.403-1.424-10.838-2.583-16.34-3.577-2.084-.406-4.208-.735-6.31-1.06h-.006a526.48 526.48 0 01-1.904-.298c-.665-.088-1.33-.178-1.996-.268-2.087-.282-4.179-.566-6.289-.791-5.535-.63-11.07-1.06-16.605-1.391-5.535-.365-11.07-.63-16.605-.795-11.07-.365-22.173-.331-33.243.397a299.531 299.531 0 00-33.01 4.107c-2.223.375-4.424.836-6.621 1.296h-.002l-1.564.327-4.209.828a95.433 95.433 0 01-4.242.794l-4.243.73-4.275.595c-1.425.199-2.85.364-4.276.53-1.425.166-2.85.331-4.308.43-5.734.564-11.501.862-17.301.762h-.729l-.166 82.996c0 14.009 5.502 19.706 13.224 19.706 6.099 0 11.17-3.445 17.5-12.784.596-.828 3.016.993 2.651 1.821-8.551 13.413-16.339 21.56-26.846 20.534-13.191-1.292-20.979-7.949-20.979-28.25V37.194l-.034-9.836a37.436 37.436 0 01-1.663-.226l-.259-.039c-5.734-.861-11.401-2.087-16.87-3.974-2.751-.96-5.435-2.02-8.02-3.345a52.656 52.656 0 01-3.779-2.12c-1.226-.762-2.419-1.556-3.579-2.583l1.16-1.391c1.06.695 2.32 1.358 3.546 1.954a54.053 54.053 0 003.812 1.556c2.585.961 5.236 1.723 7.921 2.352 2.684.63 5.402 1.093 8.153 1.49a97.46 97.46 0 008.253.762c.232 0 .464.017.696.033.232.017.464.033.696.033 6.86-7.716 8.716-10.763 12.793-21.361h1.889v21.196c5.668-.332 11.335-1.027 16.97-1.888a211.666 211.666 0 0016.306-3.213 144.59 144.59 0 004.044-.96l4.043-.994c.891-.212 1.782-.43 2.675-.65h.001c1.894-.465 3.794-.931 5.709-1.337a267.649 267.649 0 0116.936-3.212 331.465 331.465 0 0117.136-2.12c5.733-.497 11.467-.927 17.234-1.093 5.767-.198 11.534-.232 17.268 0 2.883.1 5.767.298 8.617.53.831.087 1.664.168 2.499.25h.001c2.029.197 4.065.396 6.084.677 2.85.365 5.701.795 8.551 1.259.763.143 1.528.284 2.294.426h.003c2.063.38 4.134.762 6.188 1.197 2.24.448 4.481.958 6.705 1.465l.02.005.007.001h.002c.563.129 1.124.257 1.684.383l.557.14h.001c2.602.65 5.227 1.304 7.794 2.046 5.535 1.557 11.004 3.246 16.406 5.2 10.772 3.908 21.245 8.776 30.823 14.97l.067.033zM254.673.532c-6.869 5.524-10.09 6.048-14.474 6.76l-.176.03 2.917 7.285-51.405 126.017h7.059l16.572-39.709h62.707l16.273 39.742h14.683L254.673.532zm-36.392 93.527l28.504-70.212 28.503 70.212h-57.007zm151.2-54.05c-8.312 0-11.472 3.317-18.145 10.322-1.548 1.625-3.285 3.449-5.32 5.476l-5.204 5.2s-.066-20.567-.199-20.799c-3.446 2.053-9.18 3.544-14.483 4.604v95.812h14.682V65.279L354.567 51.7c1.856-1.855 3.712-2.616 5.568-2.616 3.845 0 7.497 3.617 10.989 7.075l.18.178c.083.082.173.165.264.247l.001.001c.091.083.183.166.265.249l8.087-14.01c-3.115-1.788-7.291-2.848-10.473-2.848l.033.033zm303.676 10.322c6.673-7.005 9.833-10.322 18.145-10.322l-.099-.033c3.215 0 7.391 1.06 10.506 2.848l-8.087 14.01a4.28 4.28 0 00-.136-.131l-.082-.076-.047-.042-.002-.001c-.09-.083-.181-.165-.263-.247l-.18-.178c-3.492-3.458-7.144-7.075-10.989-7.075-1.856 0-3.712.761-5.568 2.616L662.6 65.28v75.345h-14.649V44.811c5.303-1.06 11.037-2.55 14.484-4.603.132.232.198 20.799.198 20.799l5.204-5.2c2.03-2.023 3.764-3.843 5.31-5.465l.003-.003.005-.006.002-.002zm-69.984 90.293c10.54.927 18.296-6.524 26.846-18.812.398-.728-2.021-2.417-2.651-1.655-6.297 8.544-11.368 11.724-17.467 11.724-7.722 0-13.224-5.2-13.224-18.05V45.904h21.643l1.723-5.597h-23.167V30.77l-.177-.055c-2.879-.894-7.093-2.202-14.074-2.429v12.022h-20.35l-.995 5.597h20.914v68.854c0 18.613 7.788 24.674 20.979 25.866zM597.076.995v13.778c-2.809-1.291-4.952-1.845-7.517-2.508-.461-.12-.937-.242-1.432-.373 1.259-1.921 5.203-8.943 5.866-10.897 0 0 0-.033.067-.066h2.982v.066h.034zm-134.264 137.94h14.649c0-10.333-.033-71.106-.066-71.205-3.48 2.053-9.28 3.576-14.583 4.603v66.602zm329.709-98.727l-27.343 66.9-27.94-66.9H718.28l37.584 88.758-10.241 24.707-.495 1.144-.022.049c-4.659 10.775-11.457 26.494-24.042 26.494-5.933 0-8.385-5.531-8.882-11.294h-15.743c.364 1.425.961 2.749 1.723 4.074 2.618 4.438 8.186 10.002 20.648 10.002 13.589 0 26.449-10.002 36.292-33.351L802 40.208h-9.479zm-230.313 87.268c2.386-4.836 4.607-12.552 1.69-19.54l.066.033c-4.847-11.537-19.73-18.228-21.408-18.982l-.135-.061c-3.745-1.756-10.639-4.306-20.714-7.684-.232-.066-.464-.132-.663-.232-5.767-2.318-9.578-4.835-11.401-7.518-1.89-2.715-2.818-5.928-2.818-9.571 0-5.53 1.989-10.234 5.999-14.142 4.011-3.908 9.413-5.862 16.241-5.862 4.076 0 7.689.696 10.937 2.12 3.248 1.424 6.098 3.444 8.617 6.06 2.486 2.617 3.745 3.975 3.745 3.975l.829-.133-4.74-12.452c-.198 0-.364-.033-.563-.133-.431-.232-2.585-.728-6.496-1.49-3.878-.762-7.49-1.16-10.838-1.16-8.617 0-15.577 2.617-20.88 7.85-5.336 5.233-7.988 11.69-7.988 19.407 0 4.207 1.028 8.346 3.116 12.354 2.055 4.04 4.64 7.054 7.755 9.074 3.083 2.02 8.452 4.372 16.075 7.055 7.656 2.616 12.892 4.868 15.643 6.69 2.751 1.821 4.906 3.941 6.43 6.358 1.558 2.418 2.32 5.366 2.32 8.777 0 5.63-2.22 10.465-6.629 14.473-4.408 4.007-10.87 6.027-19.355 6.027-2.32 0-8.75-.993-12.131-2.649-4.706-2.319-8.517-5.233-11.434-8.744a31.956 31.956 0 01-2.519-3.477 26.865 26.865 0 01-2.386-4.405 31.328 31.328 0 01-1.558-4.073c-1.392-4.438-2.055-6.79-2.055-6.79l-1.027-.331-1.691 17.122c.075.043.397.322.915.772l.001.001.001.001c1.092.948 3.055 2.652 5.414 4.492.298.232 8.915 6.326 12.793 8.247a44.41 44.41 0 007.557 3.014c7.258 2.219 15.212 2.682 22.007.463 9.147-3.014 16.837-6.027 21.278-14.936zm-80.14-78.028c-3.082 0-5.965 2.517-8.153 5.432-2.154 2.914-4.076 6.789-4.076 10.929 0-4.107-1.89-7.982-4.077-10.93-2.188-2.88-5.071-5.43-8.153-5.43 1.524 0 3.049-.663 4.408-1.657 1.359-.993 2.651-2.384 3.745-3.842 2.187-2.914 4.077-6.789 4.077-10.896 0 4.107 1.889 7.982 4.076 10.896 1.094 1.458 2.353 2.849 3.745 3.842 1.392.994 2.884 1.656 4.408 1.656zM13.224 98.828v26.098c0 1.887.033 3.577.1 5.1.066 1.523.265 2.782.53 3.809.298 1.026.729 1.788 1.293 2.318.563.53 1.358.828 2.386.828 1.524 0 2.95-.729 4.275-2.153 1.326-1.457 2.188-3.179 2.552-5.199h.962v7.915c-.663 0-1.194.232-1.625.662-.563.497-1.392 1.06-2.452 1.623s-2.619.861-4.707.861c-2.618 0-4.64-.497-6.065-1.523-1.458-1.027-2.485-2.352-3.148-4.008-.663-1.656-1.028-3.51-1.127-5.53-.1-2.021-.166-4.074-.166-6.161V98.861H0v-3.676h6.065v-9.638c0-1.225-.166-2.35-.497-3.41-.331-1.06-1.392-1.624-3.215-1.69v-1.093l10.838-3.477v19.275h12.13v3.676H13.225zm63.868 34.742c0 .596.066 1.225.232 1.887.133.696.365 1.325.696 1.888a7.833 7.833 0 001.094 1.524c.397.43.895.662 1.458.662v1.093H66.586v-1.093c.497 0 .96-.232 1.425-.662.43-.431.828-.928 1.127-1.524a6.145 6.145 0 00.696-1.888c.132-.695.232-1.324.232-1.887V113.4c0-2.616-.365-4.868-1.094-6.822-.73-1.954-1.69-3.577-2.917-4.869-1.226-1.291-2.618-2.252-4.176-2.88-1.557-.597-3.115-.928-4.706-.928a12.41 12.41 0 00-4.706.927c-1.558.63-2.917 1.457-4.11 2.55-1.193 1.093-2.154 2.418-2.917 3.941-.762 1.557-1.127 3.279-1.127 5.134v23.084c0 .596.067 1.225.232 1.887.133.696.365 1.325.696 1.888a7.833 7.833 0 001.094 1.524c.398.43.895.662 1.458.662v1.093H33.707v-1.093c.498 0 .962-.232 1.426-.662.43-.431.828-.928 1.127-1.524a6.145 6.145 0 00.696-1.888c.132-.695.231-1.324.231-1.887V78.162c0-1.225-.165-2.385-.53-3.477-.364-1.093-1.425-1.656-3.148-1.723V71.87l10.837-3.344v31.33a18.066 18.066 0 011.956-1.888c.795-.695 1.757-1.325 2.883-1.954 1.127-.63 2.42-1.126 3.911-1.523 1.492-.398 3.248-.597 5.27-.597 3.38 0 6.297.564 8.684 1.723 2.386 1.159 4.341 2.65 5.866 4.504a18.119 18.119 0 013.314 6.06c.696 2.219 1.028 4.339 1.028 6.459v20.898l-.166.033zm21.94-7.618c-.96-2.285-1.557-4.703-1.856-7.22v-.033h37.618c0-3.51-.431-6.789-1.293-9.737-.861-2.947-2.187-5.53-3.944-7.683-1.789-2.186-4.01-3.875-6.728-5.1-2.718-1.226-5.866-1.855-9.479-1.855-4.043 0-7.523.695-10.407 2.053-2.883 1.358-5.236 3.147-7.092 5.366a22.296 22.296 0 00-4.11 7.418c-.895 2.749-1.359 5.432-1.359 8.114 0 4.173.696 7.783 2.022 10.83 1.325 3.047 3.115 5.531 5.369 7.485a21.812 21.812 0 007.755 4.338c2.95.961 6.033 1.425 9.281 1.425 4.043 0 7.291-.497 9.744-1.458 2.452-.96 4.408-1.887 5.866-2.749.729-.43 1.359-.794 1.889-1.092.53-.299 1.028-.431 1.458-.431v-8.114h-.961c-.431 1.59-1.259 3.014-2.452 4.272a16.612 16.612 0 01-4.077 3.213c-1.524.894-3.182 1.556-4.938 2.02-1.757.464-3.447.695-5.038.695-2.983 0-5.568-.496-7.822-1.556-2.254-1.06-4.143-2.451-5.7-4.173a20.743 20.743 0 01-3.746-6.028zm7.292-26.495c1.856-1.026 4.043-1.523 6.562-1.523l-.033.033c2.453 0 4.607.497 6.496 1.457 1.889.961 3.447 2.252 4.673 3.842 1.227 1.59 2.188 3.411 2.884 5.431.663 2.021 1.06 4.074 1.127 6.161h-30.89a26.777 26.777 0 011.425-6.061 18.553 18.553 0 013.05-5.432c1.292-1.589 2.85-2.881 4.706-3.908z" fill="url(#paint0_linear_118_354)"/><defs><linearGradient id="paint0_linear_118_354" x1="-73.079" y1="53.216" x2="50.71" y2="447.389" gradientUnits="userSpaceOnUse"><stop stop-color="#E3B373"/><stop offset=".33" stop-color="#FEE0B7"/><stop offset=".552" stop-color="#FEE5C5"/><stop offset=".781" stop-color="#DEA760"/><stop offset="1" stop-color="#C3843E"/></linearGradient></defs></svg>