<svg width="65" height="38" xmlns="http://www.w3.org/2000/svg"><path d="M64.637 33.521c-.104-.151-.156-.303-.208-.403-1.142-1.967-3.27-4.387-6.438-7.26l-.052-.051-.052-.05-.051-.051h-.053c-1.453-1.361-2.336-2.219-2.751-2.672-.675-.857-.883-1.765-.467-2.673.26-.655 1.298-2.117 3.063-4.285.934-1.16 1.661-2.068 2.18-2.774 3.894-5.041 5.607-8.268 5.088-9.68l-.207-.303c-.156-.201-.468-.403-1.039-.554-.57-.152-1.298-.202-2.18-.101l-9.709.05c-.156-.05-.363-.05-.675 0-.311.05-.467.101-.467.101l-.156.101-.156.1c-.103.051-.26.202-.363.354-.156.151-.26.353-.311.554-1.039 2.673-2.285 5.093-3.635 7.412-.83 1.361-1.609 2.521-2.284 3.53a17.388 17.388 0 01-1.765 2.218c-.467.454-.883.857-1.298 1.11-.364.302-.675.403-.883.352-.207-.05-.415-.1-.57-.151a2.364 2.364 0 01-.78-.807c-.207-.353-.311-.756-.415-1.26-.052-.505-.104-.958-.104-1.311v-1.563c0-.656.052-1.16.052-1.362 0-.857 0-1.714.052-2.722.052-.958.052-1.765.104-2.32 0-.554.052-1.16.052-1.815s-.052-1.109-.104-1.512c-.052-.353-.208-.706-.363-1.06-.156-.352-.416-.604-.675-.806a3.343 3.343 0 00-1.142-.454C34.68 1.151 33.175 1 31.305 1c-4.256-.05-6.904.202-8.15.807a4.742 4.742 0 00-1.298 1.008c-.415.504-.467.756-.156.807 1.35.202 2.337.655 2.856 1.412l.207.403c.156.302.312.807.468 1.513.155.705.26 1.512.311 2.42.104 1.613.104 2.975 0 4.084a40.475 40.475 0 01-.311 2.672c-.104.655-.26 1.16-.468 1.563-.207.403-.363.655-.415.706-.052.1-.104.151-.156.151a3.012 3.012 0 01-.934.152c-.312 0-.675-.152-1.142-.454a6.326 6.326 0 01-1.402-1.26 18.252 18.252 0 01-1.662-2.27c-.623-.958-1.245-2.117-1.869-3.428l-.519-.958c-.363-.605-.778-1.513-1.401-2.673a88.413 88.413 0 01-1.558-3.378 2.151 2.151 0 00-.83-1.059l-.156-.1c-.104-.101-.312-.202-.52-.303-.26-.1-.519-.151-.778-.202l-9.241.05c-.935 0-1.61.203-1.921.606l-.156.202c-.052.1-.104.302-.104.504 0 .252.052.554.208.907 1.35 3.076 2.803 6.05 4.413 8.925C6.23 16.68 7.58 19 8.774 20.765a83.879 83.879 0 003.582 4.94c1.194 1.564 2.025 2.572 2.44 2.976.416.453.727.756.935 1.008l.83.807c.52.504 1.35 1.16 2.389 1.865 1.038.757 2.232 1.463 3.478 2.168a19.877 19.877 0 004.465 1.765c1.713.454 3.323.656 4.932.555h3.894c.779-.05 1.402-.303 1.817-.706l.156-.151c.103-.152.155-.353.26-.605.103-.252.103-.555.103-.908 0-.958.052-1.815.208-2.571.156-.757.363-1.311.57-1.715a3.67 3.67 0 01.728-.958c.26-.252.467-.403.57-.453.105-.05.209-.101.26-.101.52-.152 1.195 0 1.921.504.727.504 1.402 1.16 2.077 1.916a42.147 42.147 0 002.336 2.571c.883.958 1.713 1.664 2.388 2.118l.675.403a8.378 8.378 0 001.766.706c.726.202 1.35.252 1.868.151l8.67-.15c.831 0 1.506-.152 1.974-.404.467-.252.778-.555.83-.908.104-.353.104-.706 0-1.109-.104-.504-.156-.807-.26-.958z"/></svg>